<mxfile host="app.diagrams.net" modified="2023-04-04T02:35:12.858Z" agent="Mozilla/5.0 (Windows NT 10.0; Win64; x64) AppleWebKit/537.36 (KHTML, like Gecko) Chrome/111.0.0.0 Safari/537.36" etag="X2hox5Egu6HI31qdBWvv" version="21.1.4" type="device">
  <diagram id="C5RBs43oDa-KdzZeNtuy" name="Page-1">
    <mxGraphModel dx="4607" dy="2687" grid="1" gridSize="10" guides="1" tooltips="1" connect="1" arrows="1" fold="1" page="1" pageScale="1" pageWidth="1169" pageHeight="827" math="0" shadow="0">
      <root>
        <mxCell id="WIyWlLk6GJQsqaUBKTNV-0" />
        <mxCell id="WIyWlLk6GJQsqaUBKTNV-1" parent="WIyWlLk6GJQsqaUBKTNV-0" />
        <mxCell id="vcGM4BvRXc9gj1M7lV9q-8" style="edgeStyle=orthogonalEdgeStyle;rounded=0;orthogonalLoop=1;jettySize=auto;html=1;entryX=0.5;entryY=0;entryDx=0;entryDy=0;entryPerimeter=0;" edge="1" parent="WIyWlLk6GJQsqaUBKTNV-1" source="vcGM4BvRXc9gj1M7lV9q-0" target="vcGM4BvRXc9gj1M7lV9q-2">
          <mxGeometry relative="1" as="geometry" />
        </mxCell>
        <mxCell id="vcGM4BvRXc9gj1M7lV9q-0" value="&lt;span style=&quot;font-size: 18px;&quot;&gt;&lt;b&gt;시작&lt;/b&gt;&lt;/span&gt;" style="strokeWidth=2;html=1;shape=mxgraph.flowchart.terminator;whiteSpace=wrap;" vertex="1" parent="WIyWlLk6GJQsqaUBKTNV-1">
          <mxGeometry x="280" y="20" width="100" height="60" as="geometry" />
        </mxCell>
        <mxCell id="vcGM4BvRXc9gj1M7lV9q-7" style="edgeStyle=orthogonalEdgeStyle;rounded=0;orthogonalLoop=1;jettySize=auto;html=1;exitX=0.5;exitY=1;exitDx=0;exitDy=0;exitPerimeter=0;entryX=0.5;entryY=0;entryDx=0;entryDy=0;" edge="1" parent="WIyWlLk6GJQsqaUBKTNV-1" source="vcGM4BvRXc9gj1M7lV9q-2" target="vcGM4BvRXc9gj1M7lV9q-6">
          <mxGeometry relative="1" as="geometry" />
        </mxCell>
        <mxCell id="vcGM4BvRXc9gj1M7lV9q-19" style="edgeStyle=orthogonalEdgeStyle;rounded=0;orthogonalLoop=1;jettySize=auto;html=1;exitX=1;exitY=0.5;exitDx=0;exitDy=0;exitPerimeter=0;" edge="1" parent="WIyWlLk6GJQsqaUBKTNV-1" source="vcGM4BvRXc9gj1M7lV9q-2" target="vcGM4BvRXc9gj1M7lV9q-17">
          <mxGeometry relative="1" as="geometry" />
        </mxCell>
        <mxCell id="vcGM4BvRXc9gj1M7lV9q-2" value="&lt;span style=&quot;font-size: 18px;&quot;&gt;&lt;b&gt;1. 로그인&lt;br&gt;2. 회원가입&lt;br&gt;&lt;/b&gt;&lt;/span&gt;" style="strokeWidth=2;html=1;shape=mxgraph.flowchart.decision;whiteSpace=wrap;" vertex="1" parent="WIyWlLk6GJQsqaUBKTNV-1">
          <mxGeometry x="260" y="130" width="140" height="130" as="geometry" />
        </mxCell>
        <mxCell id="vcGM4BvRXc9gj1M7lV9q-9" style="edgeStyle=orthogonalEdgeStyle;rounded=0;orthogonalLoop=1;jettySize=auto;html=1;exitX=0.5;exitY=1;exitDx=0;exitDy=0;entryX=0.5;entryY=0;entryDx=0;entryDy=0;entryPerimeter=0;" edge="1" parent="WIyWlLk6GJQsqaUBKTNV-1" source="vcGM4BvRXc9gj1M7lV9q-6">
          <mxGeometry relative="1" as="geometry">
            <mxPoint x="330" y="390" as="targetPoint" />
          </mxGeometry>
        </mxCell>
        <mxCell id="vcGM4BvRXc9gj1M7lV9q-6" value="&lt;font style=&quot;font-size: 18px;&quot;&gt;&lt;b&gt;아이디&lt;br&gt;입력&lt;br&gt;&lt;/b&gt;&lt;/font&gt;" style="shape=parallelogram;html=1;strokeWidth=2;perimeter=parallelogramPerimeter;whiteSpace=wrap;rounded=1;arcSize=12;size=0.23;" vertex="1" parent="WIyWlLk6GJQsqaUBKTNV-1">
          <mxGeometry x="270" y="297" width="120" height="60" as="geometry" />
        </mxCell>
        <mxCell id="vcGM4BvRXc9gj1M7lV9q-29" style="edgeStyle=orthogonalEdgeStyle;rounded=0;orthogonalLoop=1;jettySize=auto;html=1;exitX=0.5;exitY=1;exitDx=0;exitDy=0;entryX=0.5;entryY=0;entryDx=0;entryDy=0;entryPerimeter=0;" edge="1" parent="WIyWlLk6GJQsqaUBKTNV-1" source="vcGM4BvRXc9gj1M7lV9q-11" target="vcGM4BvRXc9gj1M7lV9q-28">
          <mxGeometry relative="1" as="geometry" />
        </mxCell>
        <mxCell id="vcGM4BvRXc9gj1M7lV9q-11" value="&lt;b&gt;&lt;font style=&quot;font-size: 18px;&quot;&gt;비밀번호&lt;br&gt;입력&lt;/font&gt;&lt;/b&gt;" style="shape=parallelogram;html=1;strokeWidth=2;perimeter=parallelogramPerimeter;whiteSpace=wrap;rounded=1;arcSize=12;size=0.23;" vertex="1" parent="WIyWlLk6GJQsqaUBKTNV-1">
          <mxGeometry x="260" y="390" width="120" height="70" as="geometry" />
        </mxCell>
        <mxCell id="vcGM4BvRXc9gj1M7lV9q-13" value="&lt;b&gt;&lt;font style=&quot;font-size: 20px;&quot;&gt;2&lt;/font&gt;&lt;/b&gt;" style="text;html=1;strokeColor=none;fillColor=none;align=center;verticalAlign=middle;whiteSpace=wrap;rounded=0;" vertex="1" parent="WIyWlLk6GJQsqaUBKTNV-1">
          <mxGeometry x="390" y="150" width="60" height="30" as="geometry" />
        </mxCell>
        <mxCell id="vcGM4BvRXc9gj1M7lV9q-14" value="&lt;b&gt;&lt;font style=&quot;font-size: 20px;&quot;&gt;1&lt;/font&gt;&lt;/b&gt;" style="text;html=1;strokeColor=none;fillColor=none;align=center;verticalAlign=middle;whiteSpace=wrap;rounded=0;" vertex="1" parent="WIyWlLk6GJQsqaUBKTNV-1">
          <mxGeometry x="280" y="250" width="60" height="30" as="geometry" />
        </mxCell>
        <mxCell id="vcGM4BvRXc9gj1M7lV9q-15" value="&lt;span style=&quot;font-size: 20px;&quot;&gt;&lt;b&gt;yes&lt;/b&gt;&lt;/span&gt;" style="text;html=1;strokeColor=none;fillColor=none;align=center;verticalAlign=middle;whiteSpace=wrap;rounded=0;" vertex="1" parent="WIyWlLk6GJQsqaUBKTNV-1">
          <mxGeometry x="600" y="250" width="60" height="30" as="geometry" />
        </mxCell>
        <mxCell id="vcGM4BvRXc9gj1M7lV9q-16" value="&lt;span style=&quot;font-size: 20px;&quot;&gt;&lt;b&gt;no&lt;/b&gt;&lt;/span&gt;" style="text;html=1;strokeColor=none;fillColor=none;align=center;verticalAlign=middle;whiteSpace=wrap;rounded=0;" vertex="1" parent="WIyWlLk6GJQsqaUBKTNV-1">
          <mxGeometry x="560" y="390" width="60" height="30" as="geometry" />
        </mxCell>
        <mxCell id="vcGM4BvRXc9gj1M7lV9q-26" style="edgeStyle=orthogonalEdgeStyle;rounded=0;orthogonalLoop=1;jettySize=auto;html=1;exitX=0.5;exitY=1;exitDx=0;exitDy=0;entryX=0.5;entryY=0;entryDx=0;entryDy=0;entryPerimeter=0;" edge="1" parent="WIyWlLk6GJQsqaUBKTNV-1" source="vcGM4BvRXc9gj1M7lV9q-17" target="vcGM4BvRXc9gj1M7lV9q-23">
          <mxGeometry relative="1" as="geometry" />
        </mxCell>
        <mxCell id="vcGM4BvRXc9gj1M7lV9q-17" value="&lt;font style=&quot;font-size: 18px;&quot;&gt;&lt;b&gt;아이디&lt;br&gt;입력&lt;br&gt;&lt;/b&gt;&lt;/font&gt;" style="shape=parallelogram;html=1;strokeWidth=2;perimeter=parallelogramPerimeter;whiteSpace=wrap;rounded=1;arcSize=12;size=0.23;" vertex="1" parent="WIyWlLk6GJQsqaUBKTNV-1">
          <mxGeometry x="510" y="165" width="100" height="60" as="geometry" />
        </mxCell>
        <mxCell id="vcGM4BvRXc9gj1M7lV9q-25" style="edgeStyle=orthogonalEdgeStyle;rounded=0;orthogonalLoop=1;jettySize=auto;html=1;exitX=0.5;exitY=0;exitDx=0;exitDy=0;entryX=1;entryY=0.5;entryDx=0;entryDy=0;" edge="1" parent="WIyWlLk6GJQsqaUBKTNV-1" source="vcGM4BvRXc9gj1M7lV9q-20" target="vcGM4BvRXc9gj1M7lV9q-17">
          <mxGeometry relative="1" as="geometry">
            <Array as="points">
              <mxPoint x="725" y="195" />
            </Array>
          </mxGeometry>
        </mxCell>
        <mxCell id="vcGM4BvRXc9gj1M7lV9q-20" value="&lt;span style=&quot;font-size: 18px;&quot;&gt;&lt;b&gt;아이디 중복&lt;br&gt;출력&lt;br&gt;&lt;/b&gt;&lt;/span&gt;" style="shape=parallelogram;html=1;strokeWidth=2;perimeter=parallelogramPerimeter;whiteSpace=wrap;rounded=1;arcSize=12;size=0.23;" vertex="1" parent="WIyWlLk6GJQsqaUBKTNV-1">
          <mxGeometry x="650" y="260" width="150" height="67" as="geometry" />
        </mxCell>
        <mxCell id="vcGM4BvRXc9gj1M7lV9q-24" style="edgeStyle=orthogonalEdgeStyle;rounded=0;orthogonalLoop=1;jettySize=auto;html=1;exitX=1;exitY=0.5;exitDx=0;exitDy=0;exitPerimeter=0;entryX=0;entryY=0.25;entryDx=0;entryDy=0;" edge="1" parent="WIyWlLk6GJQsqaUBKTNV-1" source="vcGM4BvRXc9gj1M7lV9q-23" target="vcGM4BvRXc9gj1M7lV9q-20">
          <mxGeometry relative="1" as="geometry" />
        </mxCell>
        <mxCell id="vcGM4BvRXc9gj1M7lV9q-31" style="edgeStyle=orthogonalEdgeStyle;rounded=0;orthogonalLoop=1;jettySize=auto;html=1;exitX=0.5;exitY=1;exitDx=0;exitDy=0;exitPerimeter=0;entryX=0.5;entryY=0;entryDx=0;entryDy=0;" edge="1" parent="WIyWlLk6GJQsqaUBKTNV-1" source="vcGM4BvRXc9gj1M7lV9q-23" target="vcGM4BvRXc9gj1M7lV9q-30">
          <mxGeometry relative="1" as="geometry" />
        </mxCell>
        <mxCell id="vcGM4BvRXc9gj1M7lV9q-23" value="&lt;span style=&quot;font-size: 18px;&quot;&gt;&lt;b&gt;중복인가?&lt;br&gt;&lt;/b&gt;&lt;/span&gt;" style="strokeWidth=2;html=1;shape=mxgraph.flowchart.decision;whiteSpace=wrap;" vertex="1" parent="WIyWlLk6GJQsqaUBKTNV-1">
          <mxGeometry x="510" y="290" width="100" height="100" as="geometry" />
        </mxCell>
        <mxCell id="vcGM4BvRXc9gj1M7lV9q-71" style="edgeStyle=orthogonalEdgeStyle;rounded=0;orthogonalLoop=1;jettySize=auto;html=1;exitX=0.5;exitY=1;exitDx=0;exitDy=0;exitPerimeter=0;entryX=0.5;entryY=0;entryDx=0;entryDy=0;" edge="1" parent="WIyWlLk6GJQsqaUBKTNV-1" source="vcGM4BvRXc9gj1M7lV9q-28" target="vcGM4BvRXc9gj1M7lV9q-70">
          <mxGeometry relative="1" as="geometry" />
        </mxCell>
        <mxCell id="vcGM4BvRXc9gj1M7lV9q-87" style="edgeStyle=orthogonalEdgeStyle;rounded=0;orthogonalLoop=1;jettySize=auto;html=1;exitX=1;exitY=0.5;exitDx=0;exitDy=0;exitPerimeter=0;entryX=0;entryY=0.5;entryDx=0;entryDy=0;" edge="1" parent="WIyWlLk6GJQsqaUBKTNV-1" source="vcGM4BvRXc9gj1M7lV9q-28" target="vcGM4BvRXc9gj1M7lV9q-67">
          <mxGeometry relative="1" as="geometry">
            <Array as="points">
              <mxPoint x="390" y="505" />
            </Array>
          </mxGeometry>
        </mxCell>
        <mxCell id="vcGM4BvRXc9gj1M7lV9q-28" value="&lt;span style=&quot;font-size: 18px;&quot;&gt;&lt;b&gt;신규 회원&lt;br&gt;인가?&lt;br&gt;&lt;/b&gt;&lt;/span&gt;" style="strokeWidth=2;html=1;shape=mxgraph.flowchart.decision;whiteSpace=wrap;" vertex="1" parent="WIyWlLk6GJQsqaUBKTNV-1">
          <mxGeometry x="250" y="520" width="140" height="130" as="geometry" />
        </mxCell>
        <mxCell id="vcGM4BvRXc9gj1M7lV9q-33" style="edgeStyle=orthogonalEdgeStyle;rounded=0;orthogonalLoop=1;jettySize=auto;html=1;exitX=0.5;exitY=1;exitDx=0;exitDy=0;entryX=0.5;entryY=0;entryDx=0;entryDy=0;" edge="1" parent="WIyWlLk6GJQsqaUBKTNV-1" source="vcGM4BvRXc9gj1M7lV9q-30" target="vcGM4BvRXc9gj1M7lV9q-32">
          <mxGeometry relative="1" as="geometry" />
        </mxCell>
        <mxCell id="vcGM4BvRXc9gj1M7lV9q-30" value="&lt;font style=&quot;font-size: 18px;&quot;&gt;&lt;b&gt;이름&lt;br&gt;입력&lt;br&gt;&lt;/b&gt;&lt;/font&gt;" style="shape=parallelogram;html=1;strokeWidth=2;perimeter=parallelogramPerimeter;whiteSpace=wrap;rounded=1;arcSize=12;size=0.23;" vertex="1" parent="WIyWlLk6GJQsqaUBKTNV-1">
          <mxGeometry x="510" y="450" width="100" height="60" as="geometry" />
        </mxCell>
        <mxCell id="vcGM4BvRXc9gj1M7lV9q-35" style="edgeStyle=orthogonalEdgeStyle;rounded=0;orthogonalLoop=1;jettySize=auto;html=1;exitX=0.5;exitY=1;exitDx=0;exitDy=0;entryX=0.5;entryY=0;entryDx=0;entryDy=0;" edge="1" parent="WIyWlLk6GJQsqaUBKTNV-1" source="vcGM4BvRXc9gj1M7lV9q-32" target="vcGM4BvRXc9gj1M7lV9q-34">
          <mxGeometry relative="1" as="geometry" />
        </mxCell>
        <mxCell id="vcGM4BvRXc9gj1M7lV9q-32" value="&lt;font style=&quot;font-size: 18px;&quot;&gt;&lt;b&gt;비밀번호&lt;br&gt;입력&lt;br&gt;&lt;/b&gt;&lt;/font&gt;" style="shape=parallelogram;html=1;strokeWidth=2;perimeter=parallelogramPerimeter;whiteSpace=wrap;rounded=1;arcSize=12;size=0.23;" vertex="1" parent="WIyWlLk6GJQsqaUBKTNV-1">
          <mxGeometry x="500" y="550" width="120" height="80" as="geometry" />
        </mxCell>
        <mxCell id="vcGM4BvRXc9gj1M7lV9q-44" style="edgeStyle=orthogonalEdgeStyle;rounded=0;orthogonalLoop=1;jettySize=auto;html=1;exitX=0.5;exitY=1;exitDx=0;exitDy=0;entryX=0.5;entryY=0;entryDx=0;entryDy=0;" edge="1" parent="WIyWlLk6GJQsqaUBKTNV-1" source="vcGM4BvRXc9gj1M7lV9q-34" target="vcGM4BvRXc9gj1M7lV9q-36">
          <mxGeometry relative="1" as="geometry" />
        </mxCell>
        <mxCell id="vcGM4BvRXc9gj1M7lV9q-34" value="&lt;font style=&quot;font-size: 18px;&quot;&gt;&lt;b&gt;성별 입력&lt;br&gt;&lt;/b&gt;&lt;/font&gt;" style="shape=parallelogram;html=1;strokeWidth=2;perimeter=parallelogramPerimeter;whiteSpace=wrap;rounded=1;arcSize=12;size=0.23;" vertex="1" parent="WIyWlLk6GJQsqaUBKTNV-1">
          <mxGeometry x="500" y="670" width="120" height="80" as="geometry" />
        </mxCell>
        <mxCell id="vcGM4BvRXc9gj1M7lV9q-45" style="edgeStyle=orthogonalEdgeStyle;rounded=0;orthogonalLoop=1;jettySize=auto;html=1;exitX=0.5;exitY=1;exitDx=0;exitDy=0;" edge="1" parent="WIyWlLk6GJQsqaUBKTNV-1" source="vcGM4BvRXc9gj1M7lV9q-36" target="vcGM4BvRXc9gj1M7lV9q-38">
          <mxGeometry relative="1" as="geometry" />
        </mxCell>
        <mxCell id="vcGM4BvRXc9gj1M7lV9q-36" value="&lt;font style=&quot;font-size: 18px;&quot;&gt;&lt;b&gt;나이 입력&lt;br&gt;&lt;/b&gt;&lt;/font&gt;" style="shape=parallelogram;html=1;strokeWidth=2;perimeter=parallelogramPerimeter;whiteSpace=wrap;rounded=1;arcSize=12;size=0.23;" vertex="1" parent="WIyWlLk6GJQsqaUBKTNV-1">
          <mxGeometry x="500" y="797" width="120" height="80" as="geometry" />
        </mxCell>
        <mxCell id="vcGM4BvRXc9gj1M7lV9q-46" style="edgeStyle=orthogonalEdgeStyle;rounded=0;orthogonalLoop=1;jettySize=auto;html=1;exitX=0.5;exitY=1;exitDx=0;exitDy=0;entryX=0.5;entryY=0;entryDx=0;entryDy=0;entryPerimeter=0;" edge="1" parent="WIyWlLk6GJQsqaUBKTNV-1" source="vcGM4BvRXc9gj1M7lV9q-38" target="vcGM4BvRXc9gj1M7lV9q-39">
          <mxGeometry relative="1" as="geometry" />
        </mxCell>
        <mxCell id="vcGM4BvRXc9gj1M7lV9q-38" value="&lt;font style=&quot;font-size: 18px;&quot;&gt;&lt;b&gt;닉네임&lt;br&gt;입력&lt;br&gt;&lt;/b&gt;&lt;/font&gt;" style="shape=parallelogram;html=1;strokeWidth=2;perimeter=parallelogramPerimeter;whiteSpace=wrap;rounded=1;arcSize=12;size=0.23;" vertex="1" parent="WIyWlLk6GJQsqaUBKTNV-1">
          <mxGeometry x="500" y="930" width="120" height="80" as="geometry" />
        </mxCell>
        <mxCell id="vcGM4BvRXc9gj1M7lV9q-42" style="edgeStyle=orthogonalEdgeStyle;rounded=0;orthogonalLoop=1;jettySize=auto;html=1;exitX=1;exitY=0.5;exitDx=0;exitDy=0;exitPerimeter=0;entryX=0;entryY=0.5;entryDx=0;entryDy=0;" edge="1" parent="WIyWlLk6GJQsqaUBKTNV-1" source="vcGM4BvRXc9gj1M7lV9q-39" target="vcGM4BvRXc9gj1M7lV9q-41">
          <mxGeometry relative="1" as="geometry" />
        </mxCell>
        <mxCell id="vcGM4BvRXc9gj1M7lV9q-39" value="&lt;span style=&quot;font-size: 18px;&quot;&gt;&lt;b&gt;중복인가?&lt;br&gt;&lt;/b&gt;&lt;/span&gt;" style="strokeWidth=2;html=1;shape=mxgraph.flowchart.decision;whiteSpace=wrap;" vertex="1" parent="WIyWlLk6GJQsqaUBKTNV-1">
          <mxGeometry x="510" y="1050" width="100" height="100" as="geometry" />
        </mxCell>
        <mxCell id="vcGM4BvRXc9gj1M7lV9q-43" style="edgeStyle=orthogonalEdgeStyle;rounded=0;orthogonalLoop=1;jettySize=auto;html=1;exitX=0.5;exitY=0;exitDx=0;exitDy=0;entryX=1;entryY=0.5;entryDx=0;entryDy=0;" edge="1" parent="WIyWlLk6GJQsqaUBKTNV-1" source="vcGM4BvRXc9gj1M7lV9q-41" target="vcGM4BvRXc9gj1M7lV9q-38">
          <mxGeometry relative="1" as="geometry">
            <Array as="points">
              <mxPoint x="719" y="970" />
            </Array>
          </mxGeometry>
        </mxCell>
        <mxCell id="vcGM4BvRXc9gj1M7lV9q-41" value="&lt;span style=&quot;font-size: 18px;&quot;&gt;&lt;b&gt;닉네임 중복&lt;br&gt;출력&lt;br&gt;&lt;/b&gt;&lt;/span&gt;" style="shape=parallelogram;html=1;strokeWidth=2;perimeter=parallelogramPerimeter;whiteSpace=wrap;rounded=1;arcSize=12;size=0.23;" vertex="1" parent="WIyWlLk6GJQsqaUBKTNV-1">
          <mxGeometry x="644" y="1066.5" width="150" height="67" as="geometry" />
        </mxCell>
        <mxCell id="vcGM4BvRXc9gj1M7lV9q-47" value="&lt;span style=&quot;font-size: 20px;&quot;&gt;&lt;b&gt;yes&lt;/b&gt;&lt;/span&gt;" style="text;html=1;strokeColor=none;fillColor=none;align=center;verticalAlign=middle;whiteSpace=wrap;rounded=0;" vertex="1" parent="WIyWlLk6GJQsqaUBKTNV-1">
          <mxGeometry x="610" y="1066.5" width="60" height="30" as="geometry" />
        </mxCell>
        <mxCell id="vcGM4BvRXc9gj1M7lV9q-64" style="edgeStyle=orthogonalEdgeStyle;rounded=0;orthogonalLoop=1;jettySize=auto;html=1;exitX=1;exitY=0.5;exitDx=0;exitDy=0;" edge="1" parent="WIyWlLk6GJQsqaUBKTNV-1" source="vcGM4BvRXc9gj1M7lV9q-48" target="vcGM4BvRXc9gj1M7lV9q-63">
          <mxGeometry relative="1" as="geometry">
            <Array as="points">
              <mxPoint x="560" y="1170" />
              <mxPoint x="560" y="1170" />
            </Array>
          </mxGeometry>
        </mxCell>
        <mxCell id="vcGM4BvRXc9gj1M7lV9q-48" value="&lt;span style=&quot;font-size: 20px;&quot;&gt;&lt;b&gt;no&lt;/b&gt;&lt;/span&gt;" style="text;html=1;strokeColor=none;fillColor=none;align=center;verticalAlign=middle;whiteSpace=wrap;rounded=0;" vertex="1" parent="WIyWlLk6GJQsqaUBKTNV-1">
          <mxGeometry x="500" y="1133.5" width="60" height="30" as="geometry" />
        </mxCell>
        <mxCell id="vcGM4BvRXc9gj1M7lV9q-52" style="edgeStyle=orthogonalEdgeStyle;rounded=0;orthogonalLoop=1;jettySize=auto;html=1;exitX=0.5;exitY=1;exitDx=0;exitDy=0;entryX=0.5;entryY=0;entryDx=0;entryDy=0;" edge="1" parent="WIyWlLk6GJQsqaUBKTNV-1" source="vcGM4BvRXc9gj1M7lV9q-49" target="vcGM4BvRXc9gj1M7lV9q-51">
          <mxGeometry relative="1" as="geometry" />
        </mxCell>
        <mxCell id="vcGM4BvRXc9gj1M7lV9q-49" value="&lt;font style=&quot;font-size: 18px;&quot;&gt;&lt;b&gt;이메일&lt;br&gt;입력&lt;br&gt;&lt;/b&gt;&lt;/font&gt;" style="shape=parallelogram;html=1;strokeWidth=2;perimeter=parallelogramPerimeter;whiteSpace=wrap;rounded=1;arcSize=12;size=0.23;" vertex="1" parent="WIyWlLk6GJQsqaUBKTNV-1">
          <mxGeometry x="900" y="200" width="120" height="80" as="geometry" />
        </mxCell>
        <mxCell id="vcGM4BvRXc9gj1M7lV9q-54" style="edgeStyle=orthogonalEdgeStyle;rounded=0;orthogonalLoop=1;jettySize=auto;html=1;exitX=0.5;exitY=1;exitDx=0;exitDy=0;" edge="1" parent="WIyWlLk6GJQsqaUBKTNV-1" source="vcGM4BvRXc9gj1M7lV9q-51" target="vcGM4BvRXc9gj1M7lV9q-53">
          <mxGeometry relative="1" as="geometry" />
        </mxCell>
        <mxCell id="vcGM4BvRXc9gj1M7lV9q-51" value="&lt;font style=&quot;font-size: 18px;&quot;&gt;&lt;b&gt;전화번호&lt;br&gt;입력&lt;br&gt;&lt;/b&gt;&lt;/font&gt;" style="shape=parallelogram;html=1;strokeWidth=2;perimeter=parallelogramPerimeter;whiteSpace=wrap;rounded=1;arcSize=12;size=0.23;" vertex="1" parent="WIyWlLk6GJQsqaUBKTNV-1">
          <mxGeometry x="900" y="320" width="120" height="80" as="geometry" />
        </mxCell>
        <mxCell id="vcGM4BvRXc9gj1M7lV9q-56" style="edgeStyle=orthogonalEdgeStyle;rounded=0;orthogonalLoop=1;jettySize=auto;html=1;exitX=0.5;exitY=1;exitDx=0;exitDy=0;entryX=0.5;entryY=0;entryDx=0;entryDy=0;" edge="1" parent="WIyWlLk6GJQsqaUBKTNV-1" source="vcGM4BvRXc9gj1M7lV9q-53" target="vcGM4BvRXc9gj1M7lV9q-55">
          <mxGeometry relative="1" as="geometry" />
        </mxCell>
        <mxCell id="vcGM4BvRXc9gj1M7lV9q-53" value="&lt;font style=&quot;font-size: 18px;&quot;&gt;&lt;b&gt;운전면허증&lt;br&gt;번호 입력&lt;br&gt;&lt;/b&gt;&lt;/font&gt;" style="shape=parallelogram;html=1;strokeWidth=2;perimeter=parallelogramPerimeter;whiteSpace=wrap;rounded=1;arcSize=12;size=0.23;" vertex="1" parent="WIyWlLk6GJQsqaUBKTNV-1">
          <mxGeometry x="900" y="440" width="120" height="80" as="geometry" />
        </mxCell>
        <mxCell id="vcGM4BvRXc9gj1M7lV9q-58" style="edgeStyle=orthogonalEdgeStyle;rounded=0;orthogonalLoop=1;jettySize=auto;html=1;exitX=0.5;exitY=1;exitDx=0;exitDy=0;entryX=0.61;entryY=-0.036;entryDx=0;entryDy=0;entryPerimeter=0;" edge="1" parent="WIyWlLk6GJQsqaUBKTNV-1" source="vcGM4BvRXc9gj1M7lV9q-55" target="vcGM4BvRXc9gj1M7lV9q-57">
          <mxGeometry relative="1" as="geometry" />
        </mxCell>
        <mxCell id="vcGM4BvRXc9gj1M7lV9q-55" value="&lt;font style=&quot;font-size: 18px;&quot;&gt;&lt;b&gt;주소입력&lt;br&gt;&lt;/b&gt;&lt;/font&gt;" style="shape=parallelogram;html=1;strokeWidth=2;perimeter=parallelogramPerimeter;whiteSpace=wrap;rounded=1;arcSize=12;size=0.23;" vertex="1" parent="WIyWlLk6GJQsqaUBKTNV-1">
          <mxGeometry x="900" y="560" width="120" height="80" as="geometry" />
        </mxCell>
        <mxCell id="vcGM4BvRXc9gj1M7lV9q-165" style="edgeStyle=orthogonalEdgeStyle;rounded=0;orthogonalLoop=1;jettySize=auto;html=1;exitX=0.5;exitY=1;exitDx=0;exitDy=0;" edge="1" parent="WIyWlLk6GJQsqaUBKTNV-1" source="vcGM4BvRXc9gj1M7lV9q-57" target="vcGM4BvRXc9gj1M7lV9q-164">
          <mxGeometry relative="1" as="geometry" />
        </mxCell>
        <mxCell id="vcGM4BvRXc9gj1M7lV9q-57" value="&lt;font style=&quot;font-size: 18px;&quot;&gt;&lt;b&gt;상세주소&lt;br&gt;입력&lt;br&gt;&lt;/b&gt;&lt;/font&gt;" style="shape=parallelogram;html=1;strokeWidth=2;perimeter=parallelogramPerimeter;whiteSpace=wrap;rounded=1;arcSize=12;size=0.23;" vertex="1" parent="WIyWlLk6GJQsqaUBKTNV-1">
          <mxGeometry x="890" y="680" width="120" height="80" as="geometry" />
        </mxCell>
        <mxCell id="vcGM4BvRXc9gj1M7lV9q-78" style="edgeStyle=orthogonalEdgeStyle;rounded=0;orthogonalLoop=1;jettySize=auto;html=1;exitX=0.5;exitY=1;exitDx=0;exitDy=0;entryX=1;entryY=0.5;entryDx=0;entryDy=0;entryPerimeter=0;" edge="1" parent="WIyWlLk6GJQsqaUBKTNV-1" source="vcGM4BvRXc9gj1M7lV9q-60" target="vcGM4BvRXc9gj1M7lV9q-0">
          <mxGeometry relative="1" as="geometry">
            <Array as="points">
              <mxPoint x="950" y="1080" />
              <mxPoint x="1060" y="1080" />
              <mxPoint x="1060" y="50" />
            </Array>
          </mxGeometry>
        </mxCell>
        <mxCell id="vcGM4BvRXc9gj1M7lV9q-60" value="&lt;span style=&quot;font-size: 18px;&quot;&gt;&lt;b&gt;창 exit&lt;br&gt;&lt;/b&gt;&lt;/span&gt;" style="rounded=1;whiteSpace=wrap;html=1;absoluteArcSize=1;arcSize=14;strokeWidth=2;" vertex="1" parent="WIyWlLk6GJQsqaUBKTNV-1">
          <mxGeometry x="900" y="960" width="100" height="70" as="geometry" />
        </mxCell>
        <mxCell id="vcGM4BvRXc9gj1M7lV9q-77" style="edgeStyle=orthogonalEdgeStyle;rounded=0;orthogonalLoop=1;jettySize=auto;html=1;exitX=1;exitY=0.5;exitDx=0;exitDy=0;entryX=0.5;entryY=0;entryDx=0;entryDy=0;" edge="1" parent="WIyWlLk6GJQsqaUBKTNV-1" source="vcGM4BvRXc9gj1M7lV9q-63" target="vcGM4BvRXc9gj1M7lV9q-49">
          <mxGeometry relative="1" as="geometry">
            <Array as="points">
              <mxPoint x="840" y="1276" />
              <mxPoint x="840" y="180" />
              <mxPoint x="960" y="180" />
            </Array>
          </mxGeometry>
        </mxCell>
        <mxCell id="vcGM4BvRXc9gj1M7lV9q-63" value="&lt;span style=&quot;font-size: 18px;&quot;&gt;&lt;b&gt;창 전환&lt;br&gt;&lt;/b&gt;&lt;/span&gt;" style="rounded=1;whiteSpace=wrap;html=1;absoluteArcSize=1;arcSize=14;strokeWidth=2;" vertex="1" parent="WIyWlLk6GJQsqaUBKTNV-1">
          <mxGeometry x="510" y="1211" width="100" height="70" as="geometry" />
        </mxCell>
        <mxCell id="vcGM4BvRXc9gj1M7lV9q-88" style="edgeStyle=orthogonalEdgeStyle;rounded=0;orthogonalLoop=1;jettySize=auto;html=1;exitX=0.5;exitY=1;exitDx=0;exitDy=0;entryX=1;entryY=0.5;entryDx=0;entryDy=0;" edge="1" parent="WIyWlLk6GJQsqaUBKTNV-1" source="vcGM4BvRXc9gj1M7lV9q-67" target="vcGM4BvRXc9gj1M7lV9q-70">
          <mxGeometry relative="1" as="geometry" />
        </mxCell>
        <mxCell id="vcGM4BvRXc9gj1M7lV9q-67" value="&lt;span style=&quot;font-size: 18px;&quot;&gt;&lt;b&gt;환영 배너&lt;br&gt;&lt;/b&gt;&lt;/span&gt;" style="rounded=1;whiteSpace=wrap;html=1;absoluteArcSize=1;arcSize=14;strokeWidth=2;" vertex="1" parent="WIyWlLk6GJQsqaUBKTNV-1">
          <mxGeometry x="400" y="470" width="100" height="70" as="geometry" />
        </mxCell>
        <mxCell id="vcGM4BvRXc9gj1M7lV9q-69" value="&lt;span style=&quot;font-size: 20px;&quot;&gt;&lt;b&gt;yes&lt;/b&gt;&lt;/span&gt;" style="text;html=1;strokeColor=none;fillColor=none;align=center;verticalAlign=middle;whiteSpace=wrap;rounded=0;" vertex="1" parent="WIyWlLk6GJQsqaUBKTNV-1">
          <mxGeometry x="340" y="510" width="60" height="30" as="geometry" />
        </mxCell>
        <mxCell id="vcGM4BvRXc9gj1M7lV9q-76" style="edgeStyle=orthogonalEdgeStyle;rounded=0;orthogonalLoop=1;jettySize=auto;html=1;exitX=0.5;exitY=1;exitDx=0;exitDy=0;entryX=0.5;entryY=0;entryDx=0;entryDy=0;entryPerimeter=0;" edge="1" parent="WIyWlLk6GJQsqaUBKTNV-1" source="vcGM4BvRXc9gj1M7lV9q-70" target="vcGM4BvRXc9gj1M7lV9q-74">
          <mxGeometry relative="1" as="geometry">
            <Array as="points">
              <mxPoint x="320" y="795" />
              <mxPoint x="240" y="795" />
              <mxPoint x="240" y="40" />
              <mxPoint x="-335" y="40" />
            </Array>
          </mxGeometry>
        </mxCell>
        <mxCell id="vcGM4BvRXc9gj1M7lV9q-70" value="&lt;span style=&quot;font-size: 18px;&quot;&gt;&lt;b&gt;창 전환&lt;br&gt;&lt;/b&gt;&lt;/span&gt;" style="rounded=1;whiteSpace=wrap;html=1;absoluteArcSize=1;arcSize=14;strokeWidth=2;" vertex="1" parent="WIyWlLk6GJQsqaUBKTNV-1">
          <mxGeometry x="270" y="705" width="100" height="70" as="geometry" />
        </mxCell>
        <mxCell id="vcGM4BvRXc9gj1M7lV9q-73" value="&lt;span style=&quot;font-size: 20px;&quot;&gt;&lt;b&gt;no&lt;/b&gt;&lt;/span&gt;" style="text;html=1;strokeColor=none;fillColor=none;align=center;verticalAlign=middle;whiteSpace=wrap;rounded=0;" vertex="1" parent="WIyWlLk6GJQsqaUBKTNV-1">
          <mxGeometry x="270" y="650" width="60" height="30" as="geometry" />
        </mxCell>
        <mxCell id="vcGM4BvRXc9gj1M7lV9q-80" style="edgeStyle=orthogonalEdgeStyle;rounded=0;orthogonalLoop=1;jettySize=auto;html=1;exitX=1;exitY=0.5;exitDx=0;exitDy=0;exitPerimeter=0;entryX=0;entryY=0.5;entryDx=0;entryDy=0;" edge="1" parent="WIyWlLk6GJQsqaUBKTNV-1" source="vcGM4BvRXc9gj1M7lV9q-74" target="vcGM4BvRXc9gj1M7lV9q-79">
          <mxGeometry relative="1" as="geometry" />
        </mxCell>
        <mxCell id="vcGM4BvRXc9gj1M7lV9q-136" style="edgeStyle=orthogonalEdgeStyle;rounded=0;orthogonalLoop=1;jettySize=auto;html=1;exitX=0.5;exitY=1;exitDx=0;exitDy=0;exitPerimeter=0;entryX=0.5;entryY=0;entryDx=0;entryDy=0;" edge="1" parent="WIyWlLk6GJQsqaUBKTNV-1" source="vcGM4BvRXc9gj1M7lV9q-74" target="vcGM4BvRXc9gj1M7lV9q-135">
          <mxGeometry relative="1" as="geometry" />
        </mxCell>
        <mxCell id="vcGM4BvRXc9gj1M7lV9q-180" style="edgeStyle=orthogonalEdgeStyle;rounded=0;orthogonalLoop=1;jettySize=auto;html=1;exitX=0;exitY=0.5;exitDx=0;exitDy=0;exitPerimeter=0;entryX=1;entryY=0.5;entryDx=0;entryDy=0;" edge="1" parent="WIyWlLk6GJQsqaUBKTNV-1" source="vcGM4BvRXc9gj1M7lV9q-74" target="vcGM4BvRXc9gj1M7lV9q-179">
          <mxGeometry relative="1" as="geometry" />
        </mxCell>
        <mxCell id="vcGM4BvRXc9gj1M7lV9q-74" value="&lt;span style=&quot;font-size: 18px;&quot;&gt;&lt;b&gt;1. 이용안내&lt;br&gt;2. 마이페이지&lt;br&gt;3. 로그아웃&lt;br&gt;4. 차량등록&lt;br&gt;5. 렌탈&lt;br&gt;6. event&lt;br&gt;7. 리뷰&lt;br&gt;&lt;/b&gt;&lt;/span&gt;" style="strokeWidth=2;html=1;shape=mxgraph.flowchart.decision;whiteSpace=wrap;" vertex="1" parent="WIyWlLk6GJQsqaUBKTNV-1">
          <mxGeometry x="-500" y="60" width="330" height="270" as="geometry" />
        </mxCell>
        <mxCell id="vcGM4BvRXc9gj1M7lV9q-79" value="&lt;span style=&quot;font-size: 18px;&quot;&gt;&lt;b&gt;이용안내&lt;br&gt;창&lt;br&gt;&lt;/b&gt;&lt;/span&gt;" style="rounded=1;whiteSpace=wrap;html=1;absoluteArcSize=1;arcSize=14;strokeWidth=2;" vertex="1" parent="WIyWlLk6GJQsqaUBKTNV-1">
          <mxGeometry x="-120" y="160" width="100" height="70" as="geometry" />
        </mxCell>
        <mxCell id="vcGM4BvRXc9gj1M7lV9q-81" value="&lt;b&gt;&lt;font style=&quot;font-size: 20px;&quot;&gt;1&lt;/font&gt;&lt;/b&gt;" style="text;html=1;strokeColor=none;fillColor=none;align=center;verticalAlign=middle;whiteSpace=wrap;rounded=0;" vertex="1" parent="WIyWlLk6GJQsqaUBKTNV-1">
          <mxGeometry x="-180" y="165" width="60" height="30" as="geometry" />
        </mxCell>
        <mxCell id="vcGM4BvRXc9gj1M7lV9q-86" style="edgeStyle=orthogonalEdgeStyle;rounded=0;orthogonalLoop=1;jettySize=auto;html=1;exitX=0.5;exitY=1;exitDx=0;exitDy=0;entryX=0.5;entryY=0;entryDx=0;entryDy=0;entryPerimeter=0;" edge="1" parent="WIyWlLk6GJQsqaUBKTNV-1" source="vcGM4BvRXc9gj1M7lV9q-82" target="vcGM4BvRXc9gj1M7lV9q-85">
          <mxGeometry relative="1" as="geometry" />
        </mxCell>
        <mxCell id="vcGM4BvRXc9gj1M7lV9q-82" value="&lt;span style=&quot;font-size: 18px;&quot;&gt;&lt;b&gt;마이&lt;br&gt;페이지&lt;br&gt;&lt;/b&gt;&lt;/span&gt;" style="rounded=1;whiteSpace=wrap;html=1;absoluteArcSize=1;arcSize=14;strokeWidth=2;" vertex="1" parent="WIyWlLk6GJQsqaUBKTNV-1">
          <mxGeometry x="-210" y="287" width="100" height="70" as="geometry" />
        </mxCell>
        <mxCell id="vcGM4BvRXc9gj1M7lV9q-83" value="" style="endArrow=classic;html=1;rounded=0;exitX=0.796;exitY=0.705;exitDx=0;exitDy=0;exitPerimeter=0;entryX=0.5;entryY=0;entryDx=0;entryDy=0;" edge="1" parent="WIyWlLk6GJQsqaUBKTNV-1" source="vcGM4BvRXc9gj1M7lV9q-74" target="vcGM4BvRXc9gj1M7lV9q-82">
          <mxGeometry width="50" height="50" relative="1" as="geometry">
            <mxPoint x="10" y="670" as="sourcePoint" />
            <mxPoint x="60" y="620" as="targetPoint" />
          </mxGeometry>
        </mxCell>
        <mxCell id="vcGM4BvRXc9gj1M7lV9q-84" value="&lt;b&gt;&lt;font style=&quot;font-size: 20px;&quot;&gt;2&lt;/font&gt;&lt;/b&gt;" style="text;html=1;strokeColor=none;fillColor=none;align=center;verticalAlign=middle;whiteSpace=wrap;rounded=0;" vertex="1" parent="WIyWlLk6GJQsqaUBKTNV-1">
          <mxGeometry x="-190" y="250" width="60" height="30" as="geometry" />
        </mxCell>
        <mxCell id="vcGM4BvRXc9gj1M7lV9q-93" style="edgeStyle=orthogonalEdgeStyle;rounded=0;orthogonalLoop=1;jettySize=auto;html=1;exitX=1;exitY=0.5;exitDx=0;exitDy=0;exitPerimeter=0;entryX=0;entryY=0.5;entryDx=0;entryDy=0;" edge="1" parent="WIyWlLk6GJQsqaUBKTNV-1" source="vcGM4BvRXc9gj1M7lV9q-85" target="vcGM4BvRXc9gj1M7lV9q-92">
          <mxGeometry relative="1" as="geometry" />
        </mxCell>
        <mxCell id="vcGM4BvRXc9gj1M7lV9q-126" style="edgeStyle=orthogonalEdgeStyle;rounded=0;orthogonalLoop=1;jettySize=auto;html=1;exitX=0.5;exitY=1;exitDx=0;exitDy=0;exitPerimeter=0;entryX=0.5;entryY=0;entryDx=0;entryDy=0;" edge="1" parent="WIyWlLk6GJQsqaUBKTNV-1" source="vcGM4BvRXc9gj1M7lV9q-85" target="vcGM4BvRXc9gj1M7lV9q-116">
          <mxGeometry relative="1" as="geometry" />
        </mxCell>
        <mxCell id="vcGM4BvRXc9gj1M7lV9q-133" style="edgeStyle=orthogonalEdgeStyle;rounded=0;orthogonalLoop=1;jettySize=auto;html=1;exitX=0;exitY=0.5;exitDx=0;exitDy=0;exitPerimeter=0;entryX=0.5;entryY=0;entryDx=0;entryDy=0;" edge="1" parent="WIyWlLk6GJQsqaUBKTNV-1" source="vcGM4BvRXc9gj1M7lV9q-85" target="vcGM4BvRXc9gj1M7lV9q-132">
          <mxGeometry relative="1" as="geometry" />
        </mxCell>
        <mxCell id="vcGM4BvRXc9gj1M7lV9q-85" value="&lt;span style=&quot;font-size: 18px;&quot;&gt;&lt;b&gt;1. 정보 수정&lt;br&gt;2. 나의 이용 현황&lt;br&gt;3. 내 쿠폰&lt;br&gt;4. 내가 작성한 게시글&lt;br&gt;5. 내가 작성한 댓글&lt;br&gt;6. 탈퇴&lt;br&gt;&lt;/b&gt;&lt;/span&gt;" style="strokeWidth=2;html=1;shape=mxgraph.flowchart.decision;whiteSpace=wrap;" vertex="1" parent="WIyWlLk6GJQsqaUBKTNV-1">
          <mxGeometry x="-297.5" y="440" width="275" height="170" as="geometry" />
        </mxCell>
        <mxCell id="vcGM4BvRXc9gj1M7lV9q-89" value="&lt;span style=&quot;font-size: 18px;&quot;&gt;&lt;b&gt;정보수정&lt;br&gt;창&lt;br&gt;&lt;/b&gt;&lt;/span&gt;" style="rounded=1;whiteSpace=wrap;html=1;absoluteArcSize=1;arcSize=14;strokeWidth=2;" vertex="1" parent="WIyWlLk6GJQsqaUBKTNV-1">
          <mxGeometry x="-90" y="305" width="100" height="70" as="geometry" />
        </mxCell>
        <mxCell id="vcGM4BvRXc9gj1M7lV9q-90" value="" style="endArrow=classic;html=1;rounded=0;exitX=0.77;exitY=0.265;exitDx=0;exitDy=0;exitPerimeter=0;entryX=0.5;entryY=1;entryDx=0;entryDy=0;" edge="1" parent="WIyWlLk6GJQsqaUBKTNV-1" source="vcGM4BvRXc9gj1M7lV9q-85" target="vcGM4BvRXc9gj1M7lV9q-89">
          <mxGeometry width="50" height="50" relative="1" as="geometry">
            <mxPoint x="-227" y="260" as="sourcePoint" />
            <mxPoint x="-150" y="297" as="targetPoint" />
          </mxGeometry>
        </mxCell>
        <mxCell id="vcGM4BvRXc9gj1M7lV9q-91" value="&lt;b&gt;&lt;font style=&quot;font-size: 20px;&quot;&gt;1&lt;/font&gt;&lt;/b&gt;" style="text;html=1;strokeColor=none;fillColor=none;align=center;verticalAlign=middle;whiteSpace=wrap;rounded=0;" vertex="1" parent="WIyWlLk6GJQsqaUBKTNV-1">
          <mxGeometry x="-110" y="384" width="60" height="30" as="geometry" />
        </mxCell>
        <mxCell id="vcGM4BvRXc9gj1M7lV9q-92" value="&lt;span style=&quot;font-size: 18px;&quot;&gt;&lt;b&gt;쿠폰 조회&lt;br&gt;창&lt;br&gt;&lt;/b&gt;&lt;/span&gt;" style="rounded=1;whiteSpace=wrap;html=1;absoluteArcSize=1;arcSize=14;strokeWidth=2;" vertex="1" parent="WIyWlLk6GJQsqaUBKTNV-1">
          <mxGeometry x="70" y="490" width="100" height="70" as="geometry" />
        </mxCell>
        <mxCell id="vcGM4BvRXc9gj1M7lV9q-94" value="&lt;b&gt;&lt;font style=&quot;font-size: 20px;&quot;&gt;3&lt;/font&gt;&lt;/b&gt;" style="text;html=1;strokeColor=none;fillColor=none;align=center;verticalAlign=middle;whiteSpace=wrap;rounded=0;" vertex="1" parent="WIyWlLk6GJQsqaUBKTNV-1">
          <mxGeometry x="-10" y="495" width="60" height="30" as="geometry" />
        </mxCell>
        <mxCell id="vcGM4BvRXc9gj1M7lV9q-97" value="" style="endArrow=classic;html=1;rounded=0;exitX=0.75;exitY=0.789;exitDx=0;exitDy=0;exitPerimeter=0;entryX=0;entryY=0.5;entryDx=0;entryDy=0;" edge="1" parent="WIyWlLk6GJQsqaUBKTNV-1" source="vcGM4BvRXc9gj1M7lV9q-85">
          <mxGeometry width="50" height="50" relative="1" as="geometry">
            <mxPoint x="-76" y="495" as="sourcePoint" />
            <mxPoint y="655" as="targetPoint" />
          </mxGeometry>
        </mxCell>
        <mxCell id="vcGM4BvRXc9gj1M7lV9q-98" value="&lt;b&gt;&lt;font style=&quot;font-size: 20px;&quot;&gt;4&lt;/font&gt;&lt;/b&gt;" style="text;html=1;strokeColor=none;fillColor=none;align=center;verticalAlign=middle;whiteSpace=wrap;rounded=0;" vertex="1" parent="WIyWlLk6GJQsqaUBKTNV-1">
          <mxGeometry x="-70" y="580" width="60" height="30" as="geometry" />
        </mxCell>
        <mxCell id="vcGM4BvRXc9gj1M7lV9q-106" style="edgeStyle=orthogonalEdgeStyle;rounded=0;orthogonalLoop=1;jettySize=auto;html=1;exitX=0.5;exitY=1;exitDx=0;exitDy=0;entryX=0.5;entryY=0;entryDx=0;entryDy=0;entryPerimeter=0;" edge="1" parent="WIyWlLk6GJQsqaUBKTNV-1" source="vcGM4BvRXc9gj1M7lV9q-102" target="vcGM4BvRXc9gj1M7lV9q-105">
          <mxGeometry relative="1" as="geometry" />
        </mxCell>
        <mxCell id="vcGM4BvRXc9gj1M7lV9q-102" value="&lt;span style=&quot;font-size: 18px;&quot;&gt;&lt;b&gt;내 게시글&lt;br&gt;조회&lt;br&gt;리스트에서&lt;br&gt;선택조회&lt;br&gt;&lt;/b&gt;&lt;/span&gt;" style="rounded=1;whiteSpace=wrap;html=1;absoluteArcSize=1;arcSize=14;strokeWidth=2;" vertex="1" parent="WIyWlLk6GJQsqaUBKTNV-1">
          <mxGeometry y="630" width="120" height="100" as="geometry" />
        </mxCell>
        <mxCell id="vcGM4BvRXc9gj1M7lV9q-109" style="edgeStyle=orthogonalEdgeStyle;rounded=0;orthogonalLoop=1;jettySize=auto;html=1;exitX=0.5;exitY=1;exitDx=0;exitDy=0;exitPerimeter=0;entryX=0.5;entryY=0;entryDx=0;entryDy=0;" edge="1" parent="WIyWlLk6GJQsqaUBKTNV-1" source="vcGM4BvRXc9gj1M7lV9q-105" target="vcGM4BvRXc9gj1M7lV9q-107">
          <mxGeometry relative="1" as="geometry" />
        </mxCell>
        <mxCell id="vcGM4BvRXc9gj1M7lV9q-110" style="edgeStyle=orthogonalEdgeStyle;rounded=0;orthogonalLoop=1;jettySize=auto;html=1;exitX=1;exitY=0.5;exitDx=0;exitDy=0;exitPerimeter=0;entryX=0;entryY=0.5;entryDx=0;entryDy=0;" edge="1" parent="WIyWlLk6GJQsqaUBKTNV-1" source="vcGM4BvRXc9gj1M7lV9q-105" target="vcGM4BvRXc9gj1M7lV9q-108">
          <mxGeometry relative="1" as="geometry" />
        </mxCell>
        <mxCell id="vcGM4BvRXc9gj1M7lV9q-105" value="&lt;span style=&quot;font-size: 18px;&quot;&gt;&lt;b&gt;1. 수정&lt;br&gt;2. 삭제&lt;br&gt;&lt;/b&gt;&lt;/span&gt;" style="strokeWidth=2;html=1;shape=mxgraph.flowchart.decision;whiteSpace=wrap;" vertex="1" parent="WIyWlLk6GJQsqaUBKTNV-1">
          <mxGeometry x="-10" y="770" width="140" height="130" as="geometry" />
        </mxCell>
        <mxCell id="vcGM4BvRXc9gj1M7lV9q-113" style="edgeStyle=orthogonalEdgeStyle;rounded=0;orthogonalLoop=1;jettySize=auto;html=1;exitX=0;exitY=0.5;exitDx=0;exitDy=0;entryX=0;entryY=0.5;entryDx=0;entryDy=0;" edge="1" parent="WIyWlLk6GJQsqaUBKTNV-1" source="vcGM4BvRXc9gj1M7lV9q-107" target="vcGM4BvRXc9gj1M7lV9q-102">
          <mxGeometry relative="1" as="geometry" />
        </mxCell>
        <mxCell id="vcGM4BvRXc9gj1M7lV9q-107" value="&lt;span style=&quot;font-size: 18px;&quot;&gt;&lt;b&gt;수정&lt;br&gt;&lt;/b&gt;&lt;/span&gt;" style="rounded=1;whiteSpace=wrap;html=1;absoluteArcSize=1;arcSize=14;strokeWidth=2;" vertex="1" parent="WIyWlLk6GJQsqaUBKTNV-1">
          <mxGeometry x="10" y="940" width="100" height="70" as="geometry" />
        </mxCell>
        <mxCell id="vcGM4BvRXc9gj1M7lV9q-114" style="edgeStyle=orthogonalEdgeStyle;rounded=0;orthogonalLoop=1;jettySize=auto;html=1;exitX=0.5;exitY=0;exitDx=0;exitDy=0;entryX=1;entryY=0.5;entryDx=0;entryDy=0;" edge="1" parent="WIyWlLk6GJQsqaUBKTNV-1" source="vcGM4BvRXc9gj1M7lV9q-108" target="vcGM4BvRXc9gj1M7lV9q-102">
          <mxGeometry relative="1" as="geometry" />
        </mxCell>
        <mxCell id="vcGM4BvRXc9gj1M7lV9q-108" value="&lt;span style=&quot;font-size: 18px;&quot;&gt;&lt;b&gt;삭제&lt;br&gt;&lt;/b&gt;&lt;/span&gt;" style="rounded=1;whiteSpace=wrap;html=1;absoluteArcSize=1;arcSize=14;strokeWidth=2;" vertex="1" parent="WIyWlLk6GJQsqaUBKTNV-1">
          <mxGeometry x="160" y="800" width="100" height="70" as="geometry" />
        </mxCell>
        <mxCell id="vcGM4BvRXc9gj1M7lV9q-111" value="&lt;b&gt;&lt;font style=&quot;font-size: 20px;&quot;&gt;1&lt;/font&gt;&lt;/b&gt;" style="text;html=1;strokeColor=none;fillColor=none;align=center;verticalAlign=middle;whiteSpace=wrap;rounded=0;" vertex="1" parent="WIyWlLk6GJQsqaUBKTNV-1">
          <mxGeometry x="10" y="900" width="60" height="30" as="geometry" />
        </mxCell>
        <mxCell id="vcGM4BvRXc9gj1M7lV9q-112" value="&lt;b&gt;&lt;font style=&quot;font-size: 20px;&quot;&gt;2&lt;/font&gt;&lt;/b&gt;" style="text;html=1;strokeColor=none;fillColor=none;align=center;verticalAlign=middle;whiteSpace=wrap;rounded=0;" vertex="1" parent="WIyWlLk6GJQsqaUBKTNV-1">
          <mxGeometry x="110" y="797" width="60" height="30" as="geometry" />
        </mxCell>
        <mxCell id="vcGM4BvRXc9gj1M7lV9q-115" style="edgeStyle=orthogonalEdgeStyle;rounded=0;orthogonalLoop=1;jettySize=auto;html=1;exitX=0.5;exitY=1;exitDx=0;exitDy=0;entryX=0.5;entryY=0;entryDx=0;entryDy=0;entryPerimeter=0;" edge="1" parent="WIyWlLk6GJQsqaUBKTNV-1" source="vcGM4BvRXc9gj1M7lV9q-116" target="vcGM4BvRXc9gj1M7lV9q-119">
          <mxGeometry relative="1" as="geometry" />
        </mxCell>
        <mxCell id="vcGM4BvRXc9gj1M7lV9q-116" value="&lt;span style=&quot;font-size: 18px;&quot;&gt;&lt;b&gt;내 댓글&lt;br&gt;조회&lt;br&gt;리스트에서&lt;br&gt;선택조회&lt;br&gt;&lt;/b&gt;&lt;/span&gt;" style="rounded=1;whiteSpace=wrap;html=1;absoluteArcSize=1;arcSize=14;strokeWidth=2;" vertex="1" parent="WIyWlLk6GJQsqaUBKTNV-1">
          <mxGeometry x="-220" y="677" width="120" height="100" as="geometry" />
        </mxCell>
        <mxCell id="vcGM4BvRXc9gj1M7lV9q-117" style="edgeStyle=orthogonalEdgeStyle;rounded=0;orthogonalLoop=1;jettySize=auto;html=1;exitX=0.5;exitY=1;exitDx=0;exitDy=0;exitPerimeter=0;entryX=0.5;entryY=0;entryDx=0;entryDy=0;" edge="1" parent="WIyWlLk6GJQsqaUBKTNV-1" source="vcGM4BvRXc9gj1M7lV9q-119" target="vcGM4BvRXc9gj1M7lV9q-121">
          <mxGeometry relative="1" as="geometry" />
        </mxCell>
        <mxCell id="vcGM4BvRXc9gj1M7lV9q-127" style="edgeStyle=orthogonalEdgeStyle;rounded=0;orthogonalLoop=1;jettySize=auto;html=1;exitX=0;exitY=0.5;exitDx=0;exitDy=0;exitPerimeter=0;" edge="1" parent="WIyWlLk6GJQsqaUBKTNV-1" source="vcGM4BvRXc9gj1M7lV9q-119" target="vcGM4BvRXc9gj1M7lV9q-123">
          <mxGeometry relative="1" as="geometry" />
        </mxCell>
        <mxCell id="vcGM4BvRXc9gj1M7lV9q-119" value="&lt;span style=&quot;font-size: 18px;&quot;&gt;&lt;b&gt;1. 수정&lt;br&gt;2. 삭제&lt;br&gt;&lt;/b&gt;&lt;/span&gt;" style="strokeWidth=2;html=1;shape=mxgraph.flowchart.decision;whiteSpace=wrap;" vertex="1" parent="WIyWlLk6GJQsqaUBKTNV-1">
          <mxGeometry x="-230" y="817" width="140" height="130" as="geometry" />
        </mxCell>
        <mxCell id="vcGM4BvRXc9gj1M7lV9q-129" style="edgeStyle=orthogonalEdgeStyle;rounded=0;orthogonalLoop=1;jettySize=auto;html=1;exitX=1;exitY=0.5;exitDx=0;exitDy=0;entryX=1;entryY=0.5;entryDx=0;entryDy=0;" edge="1" parent="WIyWlLk6GJQsqaUBKTNV-1" source="vcGM4BvRXc9gj1M7lV9q-121" target="vcGM4BvRXc9gj1M7lV9q-116">
          <mxGeometry relative="1" as="geometry">
            <Array as="points">
              <mxPoint x="-60" y="1022" />
              <mxPoint x="-60" y="727" />
            </Array>
          </mxGeometry>
        </mxCell>
        <mxCell id="vcGM4BvRXc9gj1M7lV9q-121" value="&lt;span style=&quot;font-size: 18px;&quot;&gt;&lt;b&gt;수정&lt;br&gt;&lt;/b&gt;&lt;/span&gt;" style="rounded=1;whiteSpace=wrap;html=1;absoluteArcSize=1;arcSize=14;strokeWidth=2;" vertex="1" parent="WIyWlLk6GJQsqaUBKTNV-1">
          <mxGeometry x="-210" y="987" width="100" height="70" as="geometry" />
        </mxCell>
        <mxCell id="vcGM4BvRXc9gj1M7lV9q-130" style="edgeStyle=orthogonalEdgeStyle;rounded=0;orthogonalLoop=1;jettySize=auto;html=1;exitX=0.5;exitY=0;exitDx=0;exitDy=0;entryX=0;entryY=0.5;entryDx=0;entryDy=0;" edge="1" parent="WIyWlLk6GJQsqaUBKTNV-1" source="vcGM4BvRXc9gj1M7lV9q-123" target="vcGM4BvRXc9gj1M7lV9q-116">
          <mxGeometry relative="1" as="geometry" />
        </mxCell>
        <mxCell id="vcGM4BvRXc9gj1M7lV9q-123" value="&lt;span style=&quot;font-size: 18px;&quot;&gt;&lt;b&gt;삭제&lt;br&gt;&lt;/b&gt;&lt;/span&gt;" style="rounded=1;whiteSpace=wrap;html=1;absoluteArcSize=1;arcSize=14;strokeWidth=2;" vertex="1" parent="WIyWlLk6GJQsqaUBKTNV-1">
          <mxGeometry x="-360" y="847" width="100" height="70" as="geometry" />
        </mxCell>
        <mxCell id="vcGM4BvRXc9gj1M7lV9q-124" value="&lt;b&gt;&lt;font style=&quot;font-size: 20px;&quot;&gt;1&lt;/font&gt;&lt;/b&gt;" style="text;html=1;strokeColor=none;fillColor=none;align=center;verticalAlign=middle;whiteSpace=wrap;rounded=0;" vertex="1" parent="WIyWlLk6GJQsqaUBKTNV-1">
          <mxGeometry x="-210" y="947" width="60" height="30" as="geometry" />
        </mxCell>
        <mxCell id="vcGM4BvRXc9gj1M7lV9q-125" value="&lt;b&gt;&lt;font style=&quot;font-size: 20px;&quot;&gt;2&lt;/font&gt;&lt;/b&gt;" style="text;html=1;strokeColor=none;fillColor=none;align=center;verticalAlign=middle;whiteSpace=wrap;rounded=0;" vertex="1" parent="WIyWlLk6GJQsqaUBKTNV-1">
          <mxGeometry x="-270" y="827" width="60" height="30" as="geometry" />
        </mxCell>
        <mxCell id="vcGM4BvRXc9gj1M7lV9q-131" value="&lt;b&gt;&lt;font style=&quot;font-size: 20px;&quot;&gt;5&lt;/font&gt;&lt;/b&gt;" style="text;html=1;strokeColor=none;fillColor=none;align=center;verticalAlign=middle;whiteSpace=wrap;rounded=0;" vertex="1" parent="WIyWlLk6GJQsqaUBKTNV-1">
          <mxGeometry x="-180" y="630" width="60" height="30" as="geometry" />
        </mxCell>
        <mxCell id="vcGM4BvRXc9gj1M7lV9q-132" value="&lt;span style=&quot;font-size: 18px;&quot;&gt;&lt;b&gt;회원탈퇴&lt;br&gt;후 로그인창&lt;br&gt;이동&lt;br&gt;&lt;/b&gt;&lt;/span&gt;" style="rounded=1;whiteSpace=wrap;html=1;absoluteArcSize=1;arcSize=14;strokeWidth=2;" vertex="1" parent="WIyWlLk6GJQsqaUBKTNV-1">
          <mxGeometry x="-380" y="640" width="100" height="70" as="geometry" />
        </mxCell>
        <mxCell id="vcGM4BvRXc9gj1M7lV9q-134" value="&lt;b&gt;&lt;font style=&quot;font-size: 20px;&quot;&gt;6&lt;/font&gt;&lt;/b&gt;" style="text;html=1;strokeColor=none;fillColor=none;align=center;verticalAlign=middle;whiteSpace=wrap;rounded=0;" vertex="1" parent="WIyWlLk6GJQsqaUBKTNV-1">
          <mxGeometry x="-330" y="600" width="60" height="30" as="geometry" />
        </mxCell>
        <mxCell id="vcGM4BvRXc9gj1M7lV9q-135" value="&lt;span style=&quot;font-size: 18px;&quot;&gt;&lt;b&gt;창종료후&lt;br&gt;로그인창으로 이동&lt;br&gt;&lt;/b&gt;&lt;/span&gt;" style="rounded=1;whiteSpace=wrap;html=1;absoluteArcSize=1;arcSize=14;strokeWidth=2;" vertex="1" parent="WIyWlLk6GJQsqaUBKTNV-1">
          <mxGeometry x="-385" y="370" width="100" height="70" as="geometry" />
        </mxCell>
        <mxCell id="vcGM4BvRXc9gj1M7lV9q-137" value="&lt;b&gt;&lt;font style=&quot;font-size: 20px;&quot;&gt;3&lt;/font&gt;&lt;/b&gt;" style="text;html=1;strokeColor=none;fillColor=none;align=center;verticalAlign=middle;whiteSpace=wrap;rounded=0;" vertex="1" parent="WIyWlLk6GJQsqaUBKTNV-1">
          <mxGeometry x="-345" y="330" width="60" height="30" as="geometry" />
        </mxCell>
        <mxCell id="vcGM4BvRXc9gj1M7lV9q-168" style="edgeStyle=orthogonalEdgeStyle;rounded=0;orthogonalLoop=1;jettySize=auto;html=1;exitX=0;exitY=0.5;exitDx=0;exitDy=0;" edge="1" parent="WIyWlLk6GJQsqaUBKTNV-1" source="vcGM4BvRXc9gj1M7lV9q-138" target="vcGM4BvRXc9gj1M7lV9q-141">
          <mxGeometry relative="1" as="geometry" />
        </mxCell>
        <mxCell id="vcGM4BvRXc9gj1M7lV9q-138" value="&lt;span style=&quot;font-size: 18px;&quot;&gt;&lt;b&gt;차량등록&lt;br&gt;창&lt;br&gt;&lt;/b&gt;&lt;/span&gt;" style="rounded=1;whiteSpace=wrap;html=1;absoluteArcSize=1;arcSize=14;strokeWidth=2;" vertex="1" parent="WIyWlLk6GJQsqaUBKTNV-1">
          <mxGeometry x="-570" y="280" width="100" height="70" as="geometry" />
        </mxCell>
        <mxCell id="vcGM4BvRXc9gj1M7lV9q-139" value="" style="endArrow=classic;html=1;rounded=0;entryX=0.5;entryY=0;entryDx=0;entryDy=0;exitX=0.216;exitY=0.73;exitDx=0;exitDy=0;exitPerimeter=0;" edge="1" parent="WIyWlLk6GJQsqaUBKTNV-1" source="vcGM4BvRXc9gj1M7lV9q-74" target="vcGM4BvRXc9gj1M7lV9q-138">
          <mxGeometry width="50" height="50" relative="1" as="geometry">
            <mxPoint x="-430" y="320" as="sourcePoint" />
            <mxPoint x="-380" y="270" as="targetPoint" />
          </mxGeometry>
        </mxCell>
        <mxCell id="vcGM4BvRXc9gj1M7lV9q-140" value="&lt;b&gt;&lt;font style=&quot;font-size: 20px;&quot;&gt;4&lt;/font&gt;&lt;/b&gt;" style="text;html=1;strokeColor=none;fillColor=none;align=center;verticalAlign=middle;whiteSpace=wrap;rounded=0;" vertex="1" parent="WIyWlLk6GJQsqaUBKTNV-1">
          <mxGeometry x="-480" y="260" width="60" height="30" as="geometry" />
        </mxCell>
        <mxCell id="vcGM4BvRXc9gj1M7lV9q-172" style="edgeStyle=orthogonalEdgeStyle;rounded=0;orthogonalLoop=1;jettySize=auto;html=1;exitX=0;exitY=0.5;exitDx=0;exitDy=0;entryX=1;entryY=0.5;entryDx=0;entryDy=0;" edge="1" parent="WIyWlLk6GJQsqaUBKTNV-1" source="vcGM4BvRXc9gj1M7lV9q-141" target="vcGM4BvRXc9gj1M7lV9q-169">
          <mxGeometry relative="1" as="geometry" />
        </mxCell>
        <mxCell id="vcGM4BvRXc9gj1M7lV9q-141" value="&lt;font style=&quot;font-size: 18px;&quot;&gt;&lt;b&gt;차량번호&lt;br&gt;입력&lt;br&gt;&lt;/b&gt;&lt;/font&gt;" style="shape=parallelogram;html=1;strokeWidth=2;perimeter=parallelogramPerimeter;whiteSpace=wrap;rounded=1;arcSize=12;size=0.23;" vertex="1" parent="WIyWlLk6GJQsqaUBKTNV-1">
          <mxGeometry x="-740" y="277.5" width="120" height="75" as="geometry" />
        </mxCell>
        <mxCell id="vcGM4BvRXc9gj1M7lV9q-147" style="edgeStyle=orthogonalEdgeStyle;rounded=0;orthogonalLoop=1;jettySize=auto;html=1;exitX=0;exitY=0.5;exitDx=0;exitDy=0;entryX=1;entryY=0.5;entryDx=0;entryDy=0;entryPerimeter=0;" edge="1" parent="WIyWlLk6GJQsqaUBKTNV-1" source="vcGM4BvRXc9gj1M7lV9q-142" target="vcGM4BvRXc9gj1M7lV9q-146">
          <mxGeometry relative="1" as="geometry" />
        </mxCell>
        <mxCell id="vcGM4BvRXc9gj1M7lV9q-142" value="&lt;span style=&quot;font-size: 18px;&quot;&gt;&lt;b&gt;개인 서비스&lt;br&gt;이용 창&lt;br&gt;&lt;/b&gt;&lt;/span&gt;" style="rounded=1;whiteSpace=wrap;html=1;absoluteArcSize=1;arcSize=14;strokeWidth=2;" vertex="1" parent="WIyWlLk6GJQsqaUBKTNV-1">
          <mxGeometry x="-530" y="445" width="100" height="70" as="geometry" />
        </mxCell>
        <mxCell id="vcGM4BvRXc9gj1M7lV9q-143" value="" style="endArrow=classic;html=1;rounded=0;entryX=1;entryY=0.5;entryDx=0;entryDy=0;exitX=0.17;exitY=0.307;exitDx=0;exitDy=0;exitPerimeter=0;" edge="1" parent="WIyWlLk6GJQsqaUBKTNV-1" source="vcGM4BvRXc9gj1M7lV9q-85" target="vcGM4BvRXc9gj1M7lV9q-142">
          <mxGeometry width="50" height="50" relative="1" as="geometry">
            <mxPoint x="-250" y="510" as="sourcePoint" />
            <mxPoint x="-200" y="460" as="targetPoint" />
          </mxGeometry>
        </mxCell>
        <mxCell id="vcGM4BvRXc9gj1M7lV9q-144" value="&lt;span style=&quot;font-size: 20px;&quot;&gt;&lt;b&gt;2&lt;/b&gt;&lt;/span&gt;" style="text;html=1;strokeColor=none;fillColor=none;align=center;verticalAlign=middle;whiteSpace=wrap;rounded=0;" vertex="1" parent="WIyWlLk6GJQsqaUBKTNV-1">
          <mxGeometry x="-320" y="450" width="60" height="30" as="geometry" />
        </mxCell>
        <mxCell id="vcGM4BvRXc9gj1M7lV9q-159" style="edgeStyle=orthogonalEdgeStyle;rounded=0;orthogonalLoop=1;jettySize=auto;html=1;exitX=0.5;exitY=1;exitDx=0;exitDy=0;exitPerimeter=0;entryX=0.5;entryY=0;entryDx=0;entryDy=0;" edge="1" parent="WIyWlLk6GJQsqaUBKTNV-1" source="vcGM4BvRXc9gj1M7lV9q-146" target="vcGM4BvRXc9gj1M7lV9q-149">
          <mxGeometry relative="1" as="geometry" />
        </mxCell>
        <mxCell id="vcGM4BvRXc9gj1M7lV9q-167" style="edgeStyle=orthogonalEdgeStyle;rounded=0;orthogonalLoop=1;jettySize=auto;html=1;exitX=0;exitY=0.5;exitDx=0;exitDy=0;exitPerimeter=0;entryX=0.4;entryY=0;entryDx=0;entryDy=0;entryPerimeter=0;" edge="1" parent="WIyWlLk6GJQsqaUBKTNV-1" source="vcGM4BvRXc9gj1M7lV9q-146" target="vcGM4BvRXc9gj1M7lV9q-161">
          <mxGeometry relative="1" as="geometry" />
        </mxCell>
        <mxCell id="vcGM4BvRXc9gj1M7lV9q-146" value="&lt;span style=&quot;font-size: 18px;&quot;&gt;&lt;b&gt;1. 이용중인 렌탈&lt;br&gt;2. 등록중인 차량&lt;br&gt;&lt;/b&gt;&lt;/span&gt;" style="strokeWidth=2;html=1;shape=mxgraph.flowchart.decision;whiteSpace=wrap;" vertex="1" parent="WIyWlLk6GJQsqaUBKTNV-1">
          <mxGeometry x="-764" y="397.5" width="180" height="165" as="geometry" />
        </mxCell>
        <mxCell id="vcGM4BvRXc9gj1M7lV9q-148" style="edgeStyle=orthogonalEdgeStyle;rounded=0;orthogonalLoop=1;jettySize=auto;html=1;exitX=0.5;exitY=1;exitDx=0;exitDy=0;entryX=0.5;entryY=0;entryDx=0;entryDy=0;entryPerimeter=0;" edge="1" parent="WIyWlLk6GJQsqaUBKTNV-1" source="vcGM4BvRXc9gj1M7lV9q-149" target="vcGM4BvRXc9gj1M7lV9q-152">
          <mxGeometry relative="1" as="geometry" />
        </mxCell>
        <mxCell id="vcGM4BvRXc9gj1M7lV9q-149" value="&lt;span style=&quot;font-size: 18px;&quot;&gt;&lt;b&gt;내 차량&lt;br&gt;리스트에서&lt;br&gt;선택 조회&lt;br&gt;&lt;/b&gt;&lt;/span&gt;" style="rounded=1;whiteSpace=wrap;html=1;absoluteArcSize=1;arcSize=14;strokeWidth=2;" vertex="1" parent="WIyWlLk6GJQsqaUBKTNV-1">
          <mxGeometry x="-730" y="622" width="120" height="100" as="geometry" />
        </mxCell>
        <mxCell id="vcGM4BvRXc9gj1M7lV9q-150" style="edgeStyle=orthogonalEdgeStyle;rounded=0;orthogonalLoop=1;jettySize=auto;html=1;exitX=0.5;exitY=1;exitDx=0;exitDy=0;exitPerimeter=0;entryX=0.5;entryY=0;entryDx=0;entryDy=0;" edge="1" parent="WIyWlLk6GJQsqaUBKTNV-1" source="vcGM4BvRXc9gj1M7lV9q-152" target="vcGM4BvRXc9gj1M7lV9q-154">
          <mxGeometry relative="1" as="geometry" />
        </mxCell>
        <mxCell id="vcGM4BvRXc9gj1M7lV9q-151" style="edgeStyle=orthogonalEdgeStyle;rounded=0;orthogonalLoop=1;jettySize=auto;html=1;exitX=1;exitY=0.5;exitDx=0;exitDy=0;exitPerimeter=0;entryX=0;entryY=0.5;entryDx=0;entryDy=0;" edge="1" parent="WIyWlLk6GJQsqaUBKTNV-1" source="vcGM4BvRXc9gj1M7lV9q-152" target="vcGM4BvRXc9gj1M7lV9q-156">
          <mxGeometry relative="1" as="geometry" />
        </mxCell>
        <mxCell id="vcGM4BvRXc9gj1M7lV9q-152" value="&lt;span style=&quot;font-size: 18px;&quot;&gt;&lt;b&gt;1. 수정&lt;br&gt;2. 삭제&lt;br&gt;&lt;/b&gt;&lt;/span&gt;" style="strokeWidth=2;html=1;shape=mxgraph.flowchart.decision;whiteSpace=wrap;" vertex="1" parent="WIyWlLk6GJQsqaUBKTNV-1">
          <mxGeometry x="-740" y="762" width="140" height="130" as="geometry" />
        </mxCell>
        <mxCell id="vcGM4BvRXc9gj1M7lV9q-153" style="edgeStyle=orthogonalEdgeStyle;rounded=0;orthogonalLoop=1;jettySize=auto;html=1;exitX=0;exitY=0.5;exitDx=0;exitDy=0;entryX=0;entryY=0.5;entryDx=0;entryDy=0;" edge="1" parent="WIyWlLk6GJQsqaUBKTNV-1" source="vcGM4BvRXc9gj1M7lV9q-154" target="vcGM4BvRXc9gj1M7lV9q-149">
          <mxGeometry relative="1" as="geometry" />
        </mxCell>
        <mxCell id="vcGM4BvRXc9gj1M7lV9q-154" value="&lt;span style=&quot;font-size: 18px;&quot;&gt;&lt;b&gt;수정&lt;br&gt;&lt;/b&gt;&lt;/span&gt;" style="rounded=1;whiteSpace=wrap;html=1;absoluteArcSize=1;arcSize=14;strokeWidth=2;" vertex="1" parent="WIyWlLk6GJQsqaUBKTNV-1">
          <mxGeometry x="-720" y="932" width="100" height="70" as="geometry" />
        </mxCell>
        <mxCell id="vcGM4BvRXc9gj1M7lV9q-155" style="edgeStyle=orthogonalEdgeStyle;rounded=0;orthogonalLoop=1;jettySize=auto;html=1;exitX=0.5;exitY=0;exitDx=0;exitDy=0;entryX=1;entryY=0.5;entryDx=0;entryDy=0;" edge="1" parent="WIyWlLk6GJQsqaUBKTNV-1" source="vcGM4BvRXc9gj1M7lV9q-156" target="vcGM4BvRXc9gj1M7lV9q-149">
          <mxGeometry relative="1" as="geometry" />
        </mxCell>
        <mxCell id="vcGM4BvRXc9gj1M7lV9q-156" value="&lt;span style=&quot;font-size: 18px;&quot;&gt;&lt;b&gt;삭제&lt;br&gt;&lt;/b&gt;&lt;/span&gt;" style="rounded=1;whiteSpace=wrap;html=1;absoluteArcSize=1;arcSize=14;strokeWidth=2;" vertex="1" parent="WIyWlLk6GJQsqaUBKTNV-1">
          <mxGeometry x="-570" y="792" width="100" height="70" as="geometry" />
        </mxCell>
        <mxCell id="vcGM4BvRXc9gj1M7lV9q-157" value="&lt;b&gt;&lt;font style=&quot;font-size: 20px;&quot;&gt;1&lt;/font&gt;&lt;/b&gt;" style="text;html=1;strokeColor=none;fillColor=none;align=center;verticalAlign=middle;whiteSpace=wrap;rounded=0;" vertex="1" parent="WIyWlLk6GJQsqaUBKTNV-1">
          <mxGeometry x="-720" y="892" width="60" height="30" as="geometry" />
        </mxCell>
        <mxCell id="vcGM4BvRXc9gj1M7lV9q-158" value="&lt;b&gt;&lt;font style=&quot;font-size: 20px;&quot;&gt;2&lt;/font&gt;&lt;/b&gt;" style="text;html=1;strokeColor=none;fillColor=none;align=center;verticalAlign=middle;whiteSpace=wrap;rounded=0;" vertex="1" parent="WIyWlLk6GJQsqaUBKTNV-1">
          <mxGeometry x="-620" y="789" width="60" height="30" as="geometry" />
        </mxCell>
        <mxCell id="vcGM4BvRXc9gj1M7lV9q-160" value="&lt;b&gt;&lt;font style=&quot;font-size: 20px;&quot;&gt;2&lt;/font&gt;&lt;/b&gt;" style="text;html=1;strokeColor=none;fillColor=none;align=center;verticalAlign=middle;whiteSpace=wrap;rounded=0;" vertex="1" parent="WIyWlLk6GJQsqaUBKTNV-1">
          <mxGeometry x="-680" y="575" width="60" height="30" as="geometry" />
        </mxCell>
        <mxCell id="vcGM4BvRXc9gj1M7lV9q-161" value="&lt;span style=&quot;font-size: 18px;&quot;&gt;&lt;b&gt;현재 이용중인 렌탈 리스트&amp;nbsp;&lt;br&gt;&lt;/b&gt;&lt;/span&gt;" style="rounded=1;whiteSpace=wrap;html=1;absoluteArcSize=1;arcSize=14;strokeWidth=2;" vertex="1" parent="WIyWlLk6GJQsqaUBKTNV-1">
          <mxGeometry x="-830" y="540" width="100" height="70" as="geometry" />
        </mxCell>
        <mxCell id="vcGM4BvRXc9gj1M7lV9q-163" value="&lt;b&gt;&lt;font style=&quot;font-size: 20px;&quot;&gt;1&lt;/font&gt;&lt;/b&gt;" style="text;html=1;strokeColor=none;fillColor=none;align=center;verticalAlign=middle;whiteSpace=wrap;rounded=0;" vertex="1" parent="WIyWlLk6GJQsqaUBKTNV-1">
          <mxGeometry x="-810" y="445" width="60" height="30" as="geometry" />
        </mxCell>
        <mxCell id="vcGM4BvRXc9gj1M7lV9q-166" style="edgeStyle=orthogonalEdgeStyle;rounded=0;orthogonalLoop=1;jettySize=auto;html=1;exitX=0.5;exitY=1;exitDx=0;exitDy=0;entryX=0.5;entryY=0;entryDx=0;entryDy=0;" edge="1" parent="WIyWlLk6GJQsqaUBKTNV-1" source="vcGM4BvRXc9gj1M7lV9q-164" target="vcGM4BvRXc9gj1M7lV9q-60">
          <mxGeometry relative="1" as="geometry" />
        </mxCell>
        <mxCell id="vcGM4BvRXc9gj1M7lV9q-164" value="&lt;font style=&quot;font-size: 18px;&quot;&gt;&lt;b&gt;계좌 입력&lt;br&gt;&lt;/b&gt;&lt;/font&gt;" style="shape=parallelogram;html=1;strokeWidth=2;perimeter=parallelogramPerimeter;whiteSpace=wrap;rounded=1;arcSize=12;size=0.23;" vertex="1" parent="WIyWlLk6GJQsqaUBKTNV-1">
          <mxGeometry x="890" y="820" width="120" height="80" as="geometry" />
        </mxCell>
        <mxCell id="vcGM4BvRXc9gj1M7lV9q-173" style="edgeStyle=orthogonalEdgeStyle;rounded=0;orthogonalLoop=1;jettySize=auto;html=1;exitX=0;exitY=0.5;exitDx=0;exitDy=0;entryX=1;entryY=0.5;entryDx=0;entryDy=0;" edge="1" parent="WIyWlLk6GJQsqaUBKTNV-1" source="vcGM4BvRXc9gj1M7lV9q-169" target="vcGM4BvRXc9gj1M7lV9q-170">
          <mxGeometry relative="1" as="geometry" />
        </mxCell>
        <mxCell id="vcGM4BvRXc9gj1M7lV9q-169" value="&lt;font style=&quot;font-size: 18px;&quot;&gt;&lt;b&gt;연식입력&lt;br&gt;&lt;/b&gt;&lt;/font&gt;" style="shape=parallelogram;html=1;strokeWidth=2;perimeter=parallelogramPerimeter;whiteSpace=wrap;rounded=1;arcSize=12;size=0.23;" vertex="1" parent="WIyWlLk6GJQsqaUBKTNV-1">
          <mxGeometry x="-890" y="277.5" width="120" height="75" as="geometry" />
        </mxCell>
        <mxCell id="vcGM4BvRXc9gj1M7lV9q-177" style="edgeStyle=orthogonalEdgeStyle;rounded=0;orthogonalLoop=1;jettySize=auto;html=1;exitX=0.5;exitY=1;exitDx=0;exitDy=0;" edge="1" parent="WIyWlLk6GJQsqaUBKTNV-1" source="vcGM4BvRXc9gj1M7lV9q-170" target="vcGM4BvRXc9gj1M7lV9q-171">
          <mxGeometry relative="1" as="geometry" />
        </mxCell>
        <mxCell id="vcGM4BvRXc9gj1M7lV9q-170" value="&lt;font style=&quot;font-size: 18px;&quot;&gt;&lt;b&gt;차종입력&lt;br&gt;&lt;/b&gt;&lt;/font&gt;" style="shape=parallelogram;html=1;strokeWidth=2;perimeter=parallelogramPerimeter;whiteSpace=wrap;rounded=1;arcSize=12;size=0.23;" vertex="1" parent="WIyWlLk6GJQsqaUBKTNV-1">
          <mxGeometry x="-1050" y="277.5" width="120" height="75" as="geometry" />
        </mxCell>
        <mxCell id="vcGM4BvRXc9gj1M7lV9q-178" style="edgeStyle=orthogonalEdgeStyle;rounded=0;orthogonalLoop=1;jettySize=auto;html=1;exitX=0.5;exitY=1;exitDx=0;exitDy=0;entryX=0.5;entryY=0;entryDx=0;entryDy=0;" edge="1" parent="WIyWlLk6GJQsqaUBKTNV-1" source="vcGM4BvRXc9gj1M7lV9q-171" target="vcGM4BvRXc9gj1M7lV9q-175">
          <mxGeometry relative="1" as="geometry" />
        </mxCell>
        <mxCell id="vcGM4BvRXc9gj1M7lV9q-171" value="&lt;font style=&quot;font-size: 18px;&quot;&gt;&lt;b&gt;등록기간&lt;br&gt;입력&lt;br&gt;&lt;/b&gt;&lt;/font&gt;" style="shape=parallelogram;html=1;strokeWidth=2;perimeter=parallelogramPerimeter;whiteSpace=wrap;rounded=1;arcSize=12;size=0.23;" vertex="1" parent="WIyWlLk6GJQsqaUBKTNV-1">
          <mxGeometry x="-1050" y="405" width="120" height="75" as="geometry" />
        </mxCell>
        <mxCell id="vcGM4BvRXc9gj1M7lV9q-175" value="&lt;span style=&quot;font-size: 18px;&quot;&gt;&lt;b&gt;창종료&lt;br&gt;&lt;/b&gt;&lt;/span&gt;" style="rounded=1;whiteSpace=wrap;html=1;absoluteArcSize=1;arcSize=14;strokeWidth=2;" vertex="1" parent="WIyWlLk6GJQsqaUBKTNV-1">
          <mxGeometry x="-1040" y="550" width="100" height="70" as="geometry" />
        </mxCell>
        <mxCell id="vcGM4BvRXc9gj1M7lV9q-183" style="edgeStyle=orthogonalEdgeStyle;rounded=0;orthogonalLoop=1;jettySize=auto;html=1;exitX=0;exitY=0.5;exitDx=0;exitDy=0;entryX=1;entryY=0.5;entryDx=0;entryDy=0;" edge="1" parent="WIyWlLk6GJQsqaUBKTNV-1" source="vcGM4BvRXc9gj1M7lV9q-179" target="vcGM4BvRXc9gj1M7lV9q-182">
          <mxGeometry relative="1" as="geometry" />
        </mxCell>
        <mxCell id="vcGM4BvRXc9gj1M7lV9q-179" value="&lt;span style=&quot;font-size: 18px;&quot;&gt;&lt;b&gt;렌탈 창&lt;br&gt;렌탈가능한&lt;br&gt;차량리스트&lt;br&gt;&lt;/b&gt;&lt;/span&gt;" style="rounded=1;whiteSpace=wrap;html=1;absoluteArcSize=1;arcSize=14;strokeWidth=2;" vertex="1" parent="WIyWlLk6GJQsqaUBKTNV-1">
          <mxGeometry x="-680" y="160" width="100" height="70" as="geometry" />
        </mxCell>
        <mxCell id="vcGM4BvRXc9gj1M7lV9q-181" value="&lt;b&gt;&lt;font style=&quot;font-size: 20px;&quot;&gt;5&lt;/font&gt;&lt;/b&gt;" style="text;html=1;strokeColor=none;fillColor=none;align=center;verticalAlign=middle;whiteSpace=wrap;rounded=0;" vertex="1" parent="WIyWlLk6GJQsqaUBKTNV-1">
          <mxGeometry x="-560" y="160" width="60" height="30" as="geometry" />
        </mxCell>
        <mxCell id="vcGM4BvRXc9gj1M7lV9q-185" style="edgeStyle=orthogonalEdgeStyle;rounded=0;orthogonalLoop=1;jettySize=auto;html=1;exitX=0;exitY=0.5;exitDx=0;exitDy=0;entryX=1;entryY=0.5;entryDx=0;entryDy=0;" edge="1" parent="WIyWlLk6GJQsqaUBKTNV-1" source="vcGM4BvRXc9gj1M7lV9q-182" target="vcGM4BvRXc9gj1M7lV9q-184">
          <mxGeometry relative="1" as="geometry" />
        </mxCell>
        <mxCell id="vcGM4BvRXc9gj1M7lV9q-182" value="&lt;font style=&quot;font-size: 18px;&quot;&gt;&lt;b&gt;차량 선택&lt;br&gt;후 결제&lt;br&gt;&lt;/b&gt;&lt;/font&gt;" style="shape=parallelogram;html=1;strokeWidth=2;perimeter=parallelogramPerimeter;whiteSpace=wrap;rounded=1;arcSize=12;size=0.23;" vertex="1" parent="WIyWlLk6GJQsqaUBKTNV-1">
          <mxGeometry x="-850" y="157.5" width="120" height="75" as="geometry" />
        </mxCell>
        <mxCell id="vcGM4BvRXc9gj1M7lV9q-184" value="&lt;span style=&quot;font-size: 18px;&quot;&gt;&lt;b&gt;창종료&lt;br&gt;&lt;/b&gt;&lt;/span&gt;" style="rounded=1;whiteSpace=wrap;html=1;absoluteArcSize=1;arcSize=14;strokeWidth=2;" vertex="1" parent="WIyWlLk6GJQsqaUBKTNV-1">
          <mxGeometry x="-1040" y="160" width="100" height="70" as="geometry" />
        </mxCell>
        <mxCell id="vcGM4BvRXc9gj1M7lV9q-190" style="edgeStyle=orthogonalEdgeStyle;rounded=0;orthogonalLoop=1;jettySize=auto;html=1;exitX=1;exitY=0.5;exitDx=0;exitDy=0;entryX=0;entryY=0.5;entryDx=0;entryDy=0;" edge="1" parent="WIyWlLk6GJQsqaUBKTNV-1" source="vcGM4BvRXc9gj1M7lV9q-186" target="vcGM4BvRXc9gj1M7lV9q-189">
          <mxGeometry relative="1" as="geometry" />
        </mxCell>
        <mxCell id="vcGM4BvRXc9gj1M7lV9q-186" value="&lt;span style=&quot;font-size: 18px;&quot;&gt;&lt;b&gt;event 창&lt;br&gt;이벤트 리스트&amp;nbsp;&lt;br&gt;&lt;/b&gt;&lt;/span&gt;" style="rounded=1;whiteSpace=wrap;html=1;absoluteArcSize=1;arcSize=14;strokeWidth=2;" vertex="1" parent="WIyWlLk6GJQsqaUBKTNV-1">
          <mxGeometry x="-385" y="-100" width="100" height="70" as="geometry" />
        </mxCell>
        <mxCell id="vcGM4BvRXc9gj1M7lV9q-187" value="" style="endArrow=classic;html=1;rounded=0;entryX=0.5;entryY=1;entryDx=0;entryDy=0;exitX=0.363;exitY=0.133;exitDx=0;exitDy=0;exitPerimeter=0;" edge="1" parent="WIyWlLk6GJQsqaUBKTNV-1" source="vcGM4BvRXc9gj1M7lV9q-74" target="vcGM4BvRXc9gj1M7lV9q-186">
          <mxGeometry width="50" height="50" relative="1" as="geometry">
            <mxPoint x="-280" y="120" as="sourcePoint" />
            <mxPoint x="-230" y="70" as="targetPoint" />
          </mxGeometry>
        </mxCell>
        <mxCell id="vcGM4BvRXc9gj1M7lV9q-188" value="&lt;b&gt;&lt;font style=&quot;font-size: 20px;&quot;&gt;6&lt;/font&gt;&lt;/b&gt;" style="text;html=1;strokeColor=none;fillColor=none;align=center;verticalAlign=middle;whiteSpace=wrap;rounded=0;" vertex="1" parent="WIyWlLk6GJQsqaUBKTNV-1">
          <mxGeometry x="-357.5" width="60" height="30" as="geometry" />
        </mxCell>
        <mxCell id="vcGM4BvRXc9gj1M7lV9q-192" style="edgeStyle=orthogonalEdgeStyle;rounded=0;orthogonalLoop=1;jettySize=auto;html=1;exitX=1;exitY=0.5;exitDx=0;exitDy=0;" edge="1" parent="WIyWlLk6GJQsqaUBKTNV-1" source="vcGM4BvRXc9gj1M7lV9q-189" target="vcGM4BvRXc9gj1M7lV9q-191">
          <mxGeometry relative="1" as="geometry" />
        </mxCell>
        <mxCell id="vcGM4BvRXc9gj1M7lV9q-189" value="&lt;font style=&quot;font-size: 18px;&quot;&gt;&lt;b&gt;응모하려는&lt;br&gt;이벤트&lt;br&gt;선택&lt;br&gt;&lt;/b&gt;&lt;/font&gt;" style="shape=parallelogram;html=1;strokeWidth=2;perimeter=parallelogramPerimeter;whiteSpace=wrap;rounded=1;arcSize=12;size=0.23;" vertex="1" parent="WIyWlLk6GJQsqaUBKTNV-1">
          <mxGeometry x="-210" y="-106.25" width="140" height="82.5" as="geometry" />
        </mxCell>
        <mxCell id="vcGM4BvRXc9gj1M7lV9q-194" style="edgeStyle=orthogonalEdgeStyle;rounded=0;orthogonalLoop=1;jettySize=auto;html=1;exitX=1;exitY=0.5;exitDx=0;exitDy=0;exitPerimeter=0;entryX=0;entryY=0.5;entryDx=0;entryDy=0;" edge="1" parent="WIyWlLk6GJQsqaUBKTNV-1" source="vcGM4BvRXc9gj1M7lV9q-191" target="vcGM4BvRXc9gj1M7lV9q-193">
          <mxGeometry relative="1" as="geometry" />
        </mxCell>
        <mxCell id="vcGM4BvRXc9gj1M7lV9q-197" style="edgeStyle=orthogonalEdgeStyle;rounded=0;orthogonalLoop=1;jettySize=auto;html=1;exitX=0.5;exitY=0;exitDx=0;exitDy=0;exitPerimeter=0;entryX=0.5;entryY=0;entryDx=0;entryDy=0;" edge="1" parent="WIyWlLk6GJQsqaUBKTNV-1" source="vcGM4BvRXc9gj1M7lV9q-191" target="vcGM4BvRXc9gj1M7lV9q-186">
          <mxGeometry relative="1" as="geometry" />
        </mxCell>
        <mxCell id="vcGM4BvRXc9gj1M7lV9q-191" value="&lt;span style=&quot;font-size: 18px;&quot;&gt;&lt;b&gt;포인트가&amp;nbsp;&lt;br&gt;충분한가?&lt;br&gt;&lt;/b&gt;&lt;/span&gt;" style="strokeWidth=2;html=1;shape=mxgraph.flowchart.decision;whiteSpace=wrap;" vertex="1" parent="WIyWlLk6GJQsqaUBKTNV-1">
          <mxGeometry x="-10" y="-130" width="140" height="130" as="geometry" />
        </mxCell>
        <mxCell id="vcGM4BvRXc9gj1M7lV9q-193" value="&lt;span style=&quot;font-size: 18px;&quot;&gt;&lt;b&gt;응모완료후&lt;br&gt;창 종료&lt;br&gt;&lt;/b&gt;&lt;/span&gt;" style="rounded=1;whiteSpace=wrap;html=1;absoluteArcSize=1;arcSize=14;strokeWidth=2;" vertex="1" parent="WIyWlLk6GJQsqaUBKTNV-1">
          <mxGeometry x="170" y="-100" width="100" height="70" as="geometry" />
        </mxCell>
        <mxCell id="vcGM4BvRXc9gj1M7lV9q-195" value="&lt;span style=&quot;font-size: 20px;&quot;&gt;&lt;b&gt;yes&lt;/b&gt;&lt;/span&gt;" style="text;html=1;strokeColor=none;fillColor=none;align=center;verticalAlign=middle;whiteSpace=wrap;rounded=0;" vertex="1" parent="WIyWlLk6GJQsqaUBKTNV-1">
          <mxGeometry x="120" y="-100" width="60" height="30" as="geometry" />
        </mxCell>
        <mxCell id="vcGM4BvRXc9gj1M7lV9q-196" value="&lt;span style=&quot;font-size: 20px;&quot;&gt;&lt;b&gt;no&lt;/b&gt;&lt;/span&gt;" style="text;html=1;strokeColor=none;fillColor=none;align=center;verticalAlign=middle;whiteSpace=wrap;rounded=0;" vertex="1" parent="WIyWlLk6GJQsqaUBKTNV-1">
          <mxGeometry x="-30" y="-140" width="60" height="30" as="geometry" />
        </mxCell>
        <mxCell id="vcGM4BvRXc9gj1M7lV9q-202" style="edgeStyle=orthogonalEdgeStyle;rounded=0;orthogonalLoop=1;jettySize=auto;html=1;exitX=0;exitY=0.5;exitDx=0;exitDy=0;entryX=1;entryY=0.5;entryDx=0;entryDy=0;entryPerimeter=0;" edge="1" parent="WIyWlLk6GJQsqaUBKTNV-1" source="vcGM4BvRXc9gj1M7lV9q-198" target="vcGM4BvRXc9gj1M7lV9q-201">
          <mxGeometry relative="1" as="geometry" />
        </mxCell>
        <mxCell id="vcGM4BvRXc9gj1M7lV9q-198" value="&lt;span style=&quot;font-size: 18px;&quot;&gt;&lt;b&gt;리뷰창&lt;br&gt;리뷰리스트&lt;br&gt;리뷰작성&lt;br&gt;&lt;/b&gt;&lt;/span&gt;" style="rounded=1;whiteSpace=wrap;html=1;absoluteArcSize=1;arcSize=14;strokeWidth=2;" vertex="1" parent="WIyWlLk6GJQsqaUBKTNV-1">
          <mxGeometry x="-584" width="100" height="70" as="geometry" />
        </mxCell>
        <mxCell id="vcGM4BvRXc9gj1M7lV9q-199" value="" style="endArrow=classic;html=1;rounded=0;exitX=0.203;exitY=0.285;exitDx=0;exitDy=0;exitPerimeter=0;entryX=1;entryY=1;entryDx=0;entryDy=0;" edge="1" parent="WIyWlLk6GJQsqaUBKTNV-1" source="vcGM4BvRXc9gj1M7lV9q-74" target="vcGM4BvRXc9gj1M7lV9q-198">
          <mxGeometry width="50" height="50" relative="1" as="geometry">
            <mxPoint x="-440" y="50" as="sourcePoint" />
            <mxPoint x="-390" as="targetPoint" />
          </mxGeometry>
        </mxCell>
        <mxCell id="vcGM4BvRXc9gj1M7lV9q-200" value="&lt;b&gt;&lt;font style=&quot;font-size: 20px;&quot;&gt;7&lt;/font&gt;&lt;/b&gt;" style="text;html=1;strokeColor=none;fillColor=none;align=center;verticalAlign=middle;whiteSpace=wrap;rounded=0;" vertex="1" parent="WIyWlLk6GJQsqaUBKTNV-1">
          <mxGeometry x="-460" y="80" width="60" height="30" as="geometry" />
        </mxCell>
        <mxCell id="vcGM4BvRXc9gj1M7lV9q-204" style="edgeStyle=orthogonalEdgeStyle;rounded=0;orthogonalLoop=1;jettySize=auto;html=1;exitX=0;exitY=0.5;exitDx=0;exitDy=0;exitPerimeter=0;entryX=1;entryY=0.5;entryDx=0;entryDy=0;" edge="1" parent="WIyWlLk6GJQsqaUBKTNV-1" source="vcGM4BvRXc9gj1M7lV9q-201" target="vcGM4BvRXc9gj1M7lV9q-203">
          <mxGeometry relative="1" as="geometry" />
        </mxCell>
        <mxCell id="vcGM4BvRXc9gj1M7lV9q-213" style="edgeStyle=orthogonalEdgeStyle;rounded=0;orthogonalLoop=1;jettySize=auto;html=1;exitX=0.5;exitY=0;exitDx=0;exitDy=0;exitPerimeter=0;entryX=0.5;entryY=1;entryDx=0;entryDy=0;" edge="1" parent="WIyWlLk6GJQsqaUBKTNV-1" source="vcGM4BvRXc9gj1M7lV9q-201" target="vcGM4BvRXc9gj1M7lV9q-212">
          <mxGeometry relative="1" as="geometry" />
        </mxCell>
        <mxCell id="vcGM4BvRXc9gj1M7lV9q-201" value="&lt;span style=&quot;font-size: 18px;&quot;&gt;&lt;b&gt;1. 리뷰 조회&lt;br&gt;2. 리뷰 작성&lt;br&gt;&lt;/b&gt;&lt;/span&gt;" style="strokeWidth=2;html=1;shape=mxgraph.flowchart.decision;whiteSpace=wrap;" vertex="1" parent="WIyWlLk6GJQsqaUBKTNV-1">
          <mxGeometry x="-830" y="-30" width="140" height="130" as="geometry" />
        </mxCell>
        <mxCell id="vcGM4BvRXc9gj1M7lV9q-207" style="edgeStyle=orthogonalEdgeStyle;rounded=0;orthogonalLoop=1;jettySize=auto;html=1;exitX=0;exitY=0.5;exitDx=0;exitDy=0;entryX=1;entryY=0.5;entryDx=0;entryDy=0;" edge="1" parent="WIyWlLk6GJQsqaUBKTNV-1" source="vcGM4BvRXc9gj1M7lV9q-203" target="vcGM4BvRXc9gj1M7lV9q-205">
          <mxGeometry relative="1" as="geometry" />
        </mxCell>
        <mxCell id="vcGM4BvRXc9gj1M7lV9q-203" value="&lt;font style=&quot;font-size: 18px;&quot;&gt;&lt;b&gt;차종입력&lt;br&gt;&lt;/b&gt;&lt;/font&gt;" style="shape=parallelogram;html=1;strokeWidth=2;perimeter=parallelogramPerimeter;whiteSpace=wrap;rounded=1;arcSize=12;size=0.23;" vertex="1" parent="WIyWlLk6GJQsqaUBKTNV-1">
          <mxGeometry x="-1010" y="-2.5" width="120" height="75" as="geometry" />
        </mxCell>
        <mxCell id="vcGM4BvRXc9gj1M7lV9q-208" style="edgeStyle=orthogonalEdgeStyle;rounded=0;orthogonalLoop=1;jettySize=auto;html=1;exitX=0;exitY=0.5;exitDx=0;exitDy=0;entryX=1;entryY=0.5;entryDx=0;entryDy=0;" edge="1" parent="WIyWlLk6GJQsqaUBKTNV-1" source="vcGM4BvRXc9gj1M7lV9q-205" target="vcGM4BvRXc9gj1M7lV9q-206">
          <mxGeometry relative="1" as="geometry" />
        </mxCell>
        <mxCell id="vcGM4BvRXc9gj1M7lV9q-205" value="&lt;font style=&quot;font-size: 18px;&quot;&gt;&lt;b&gt;제목입력&lt;br&gt;&lt;/b&gt;&lt;/font&gt;" style="shape=parallelogram;html=1;strokeWidth=2;perimeter=parallelogramPerimeter;whiteSpace=wrap;rounded=1;arcSize=12;size=0.23;" vertex="1" parent="WIyWlLk6GJQsqaUBKTNV-1">
          <mxGeometry x="-1150" y="-2.5" width="120" height="75" as="geometry" />
        </mxCell>
        <mxCell id="vcGM4BvRXc9gj1M7lV9q-210" style="edgeStyle=orthogonalEdgeStyle;rounded=0;orthogonalLoop=1;jettySize=auto;html=1;exitX=0.5;exitY=1;exitDx=0;exitDy=0;entryX=0.5;entryY=0;entryDx=0;entryDy=0;" edge="1" parent="WIyWlLk6GJQsqaUBKTNV-1" source="vcGM4BvRXc9gj1M7lV9q-206" target="vcGM4BvRXc9gj1M7lV9q-209">
          <mxGeometry relative="1" as="geometry" />
        </mxCell>
        <mxCell id="vcGM4BvRXc9gj1M7lV9q-206" value="&lt;font style=&quot;font-size: 18px;&quot;&gt;&lt;b&gt;내용입력&lt;br&gt;&lt;/b&gt;&lt;/font&gt;" style="shape=parallelogram;html=1;strokeWidth=2;perimeter=parallelogramPerimeter;whiteSpace=wrap;rounded=1;arcSize=12;size=0.23;" vertex="1" parent="WIyWlLk6GJQsqaUBKTNV-1">
          <mxGeometry x="-1290" y="-2.5" width="120" height="75" as="geometry" />
        </mxCell>
        <mxCell id="vcGM4BvRXc9gj1M7lV9q-209" value="&lt;span style=&quot;font-size: 18px;&quot;&gt;&lt;b&gt;창종료&lt;br&gt;&lt;/b&gt;&lt;/span&gt;" style="rounded=1;whiteSpace=wrap;html=1;absoluteArcSize=1;arcSize=14;strokeWidth=2;" vertex="1" parent="WIyWlLk6GJQsqaUBKTNV-1">
          <mxGeometry x="-1280" y="110" width="100" height="70" as="geometry" />
        </mxCell>
        <mxCell id="vcGM4BvRXc9gj1M7lV9q-211" value="&lt;span style=&quot;font-size: 20px;&quot;&gt;&lt;b&gt;2&lt;/b&gt;&lt;/span&gt;" style="text;html=1;strokeColor=none;fillColor=none;align=center;verticalAlign=middle;whiteSpace=wrap;rounded=0;" vertex="1" parent="WIyWlLk6GJQsqaUBKTNV-1">
          <mxGeometry x="-890" y="42.5" width="60" height="30" as="geometry" />
        </mxCell>
        <mxCell id="vcGM4BvRXc9gj1M7lV9q-216" style="edgeStyle=orthogonalEdgeStyle;rounded=0;orthogonalLoop=1;jettySize=auto;html=1;exitX=0;exitY=0.5;exitDx=0;exitDy=0;" edge="1" parent="WIyWlLk6GJQsqaUBKTNV-1" source="vcGM4BvRXc9gj1M7lV9q-212" target="vcGM4BvRXc9gj1M7lV9q-215">
          <mxGeometry relative="1" as="geometry" />
        </mxCell>
        <mxCell id="vcGM4BvRXc9gj1M7lV9q-212" value="&lt;font style=&quot;font-size: 18px;&quot;&gt;&lt;b&gt;조회하려는 &lt;br&gt;리뷰 리스트에서&lt;br&gt;선택&lt;br&gt;&lt;/b&gt;&lt;/font&gt;" style="shape=parallelogram;html=1;strokeWidth=2;perimeter=parallelogramPerimeter;whiteSpace=wrap;rounded=1;arcSize=12;size=0.23;" vertex="1" parent="WIyWlLk6GJQsqaUBKTNV-1">
          <mxGeometry x="-850" y="-155" width="180" height="85" as="geometry" />
        </mxCell>
        <mxCell id="vcGM4BvRXc9gj1M7lV9q-214" value="&lt;span style=&quot;font-size: 20px;&quot;&gt;&lt;b&gt;1&lt;/b&gt;&lt;/span&gt;" style="text;html=1;strokeColor=none;fillColor=none;align=center;verticalAlign=middle;whiteSpace=wrap;rounded=0;" vertex="1" parent="WIyWlLk6GJQsqaUBKTNV-1">
          <mxGeometry x="-810" y="-60" width="60" height="30" as="geometry" />
        </mxCell>
        <mxCell id="vcGM4BvRXc9gj1M7lV9q-218" style="edgeStyle=orthogonalEdgeStyle;rounded=0;orthogonalLoop=1;jettySize=auto;html=1;exitX=0;exitY=0.5;exitDx=0;exitDy=0;exitPerimeter=0;entryX=1;entryY=0.5;entryDx=0;entryDy=0;" edge="1" parent="WIyWlLk6GJQsqaUBKTNV-1" source="vcGM4BvRXc9gj1M7lV9q-215" target="vcGM4BvRXc9gj1M7lV9q-217">
          <mxGeometry relative="1" as="geometry" />
        </mxCell>
        <mxCell id="vcGM4BvRXc9gj1M7lV9q-223" style="edgeStyle=orthogonalEdgeStyle;rounded=0;orthogonalLoop=1;jettySize=auto;html=1;exitX=0.5;exitY=1;exitDx=0;exitDy=0;exitPerimeter=0;entryX=0.5;entryY=1;entryDx=0;entryDy=0;" edge="1" parent="WIyWlLk6GJQsqaUBKTNV-1" source="vcGM4BvRXc9gj1M7lV9q-215" target="vcGM4BvRXc9gj1M7lV9q-221">
          <mxGeometry relative="1" as="geometry" />
        </mxCell>
        <mxCell id="vcGM4BvRXc9gj1M7lV9q-215" value="&lt;span style=&quot;font-size: 18px;&quot;&gt;&lt;b&gt;댓글작성&lt;br&gt;할것인가?&lt;br&gt;&lt;/b&gt;&lt;/span&gt;" style="strokeWidth=2;html=1;shape=mxgraph.flowchart.decision;whiteSpace=wrap;" vertex="1" parent="WIyWlLk6GJQsqaUBKTNV-1">
          <mxGeometry x="-1040" y="-177.5" width="140" height="130" as="geometry" />
        </mxCell>
        <mxCell id="vcGM4BvRXc9gj1M7lV9q-222" style="edgeStyle=orthogonalEdgeStyle;rounded=0;orthogonalLoop=1;jettySize=auto;html=1;exitX=0;exitY=0.5;exitDx=0;exitDy=0;entryX=1;entryY=0.5;entryDx=0;entryDy=0;" edge="1" parent="WIyWlLk6GJQsqaUBKTNV-1" source="vcGM4BvRXc9gj1M7lV9q-217" target="vcGM4BvRXc9gj1M7lV9q-221">
          <mxGeometry relative="1" as="geometry" />
        </mxCell>
        <mxCell id="vcGM4BvRXc9gj1M7lV9q-217" value="&lt;font style=&quot;font-size: 18px;&quot;&gt;&lt;b&gt;댓글 입력&lt;br&gt;&lt;/b&gt;&lt;/font&gt;" style="shape=parallelogram;html=1;strokeWidth=2;perimeter=parallelogramPerimeter;whiteSpace=wrap;rounded=1;arcSize=12;size=0.23;" vertex="1" parent="WIyWlLk6GJQsqaUBKTNV-1">
          <mxGeometry x="-1200" y="-150" width="120" height="75" as="geometry" />
        </mxCell>
        <mxCell id="vcGM4BvRXc9gj1M7lV9q-219" value="&lt;span style=&quot;font-size: 20px;&quot;&gt;&lt;b&gt;yes&lt;/b&gt;&lt;/span&gt;" style="text;html=1;strokeColor=none;fillColor=none;align=center;verticalAlign=middle;whiteSpace=wrap;rounded=0;" vertex="1" parent="WIyWlLk6GJQsqaUBKTNV-1">
          <mxGeometry x="-1090" y="-110" width="60" height="30" as="geometry" />
        </mxCell>
        <mxCell id="vcGM4BvRXc9gj1M7lV9q-220" value="&lt;span style=&quot;font-size: 20px;&quot;&gt;&lt;b&gt;no&lt;/b&gt;&lt;/span&gt;" style="text;html=1;strokeColor=none;fillColor=none;align=center;verticalAlign=middle;whiteSpace=wrap;rounded=0;" vertex="1" parent="WIyWlLk6GJQsqaUBKTNV-1">
          <mxGeometry x="-960" y="-70" width="60" height="30" as="geometry" />
        </mxCell>
        <mxCell id="vcGM4BvRXc9gj1M7lV9q-221" value="&lt;span style=&quot;font-size: 18px;&quot;&gt;&lt;b&gt;창종료&lt;br&gt;&lt;/b&gt;&lt;/span&gt;" style="rounded=1;whiteSpace=wrap;html=1;absoluteArcSize=1;arcSize=14;strokeWidth=2;" vertex="1" parent="WIyWlLk6GJQsqaUBKTNV-1">
          <mxGeometry x="-1340" y="-147.5" width="100" height="70" as="geometry" />
        </mxCell>
      </root>
    </mxGraphModel>
  </diagram>
</mxfile>
